<svg width="33" height="30" viewBox="0 0 33 30" fill="none" xmlns="http://www.w3.org/2000/svg">
<path d="M26.3818 28.6866C26.4 25.4761 22.775 23.5761 19.2588 22.1918C15.7558 20.8135 14.6371 19.6524 14.6371 17.1643C14.6371 15.6729 15.7064 16.1585 16.1749 13.423C16.3729 12.289 17.3167 13.4049 17.4982 10.8158C17.4982 9.78433 16.9818 9.52798 16.9818 9.52798C16.9818 9.52798 17.2441 8.00042 17.3464 6.82421C17.452 5.59221 16.6897 2.96384 13.5498 2.15709C13.002 1.64287 12.6307 0.827068 14.3203 0.00975498C10.6243 -0.147073 9.7647 1.62025 7.79625 2.92011C6.1215 4.06013 5.6694 5.86515 5.75025 6.82572C5.8575 8.00193 6.1182 9.52949 6.1182 9.52949C6.1182 9.52949 5.6001 9.78584 5.6001 10.8173C5.7816 13.408 6.7287 12.2906 6.92505 13.4245C7.39365 16.16 8.4645 15.6744 8.4645 17.1658C8.4645 19.6539 8.1147 20.4984 4.6101 21.8766C1.09395 23.2594 0 25.4761 0.01815 28.6866C0.0231 29.6471 0 30 0 30H26.4C26.4 30 26.3769 29.6471 26.3818 28.6866ZM28.05 14.9204V10.3966H24.75V14.9204H19.8V17.9363H24.75V22.4602H28.05V17.9363H33V14.9204H28.05Z" fill="#6C87AE"/>
</svg>
