<svg width="374" height="174" viewBox="0 0 374 174" fill="none" xmlns="http://www.w3.org/2000/svg">
<g clip-path="url(#clip0_28_2258)">
<path d="M337.882 141.529H53.5151C49.8798 141.525 46.3946 140.19 43.824 137.818C41.2535 135.446 39.8075 132.229 39.8035 128.874V29.2901C39.8076 25.9351 41.2535 22.7187 43.8241 20.3463C46.3946 17.974 49.8798 16.6396 53.5151 16.6358H337.882C341.517 16.6396 345.003 17.974 347.573 20.3463C350.144 22.7187 351.59 25.9351 351.594 29.2901V128.874C351.59 132.229 350.144 135.446 347.573 137.818C345.003 140.19 341.517 141.525 337.882 141.529Z" fill="white"/>
<path d="M337.882 141.529H53.5151C49.8798 141.525 46.3946 140.19 43.824 137.818C41.2535 135.446 39.8075 132.229 39.8035 128.874V29.2901C39.8076 25.9351 41.2535 22.7187 43.8241 20.3463C46.3946 17.974 49.8798 16.6396 53.5151 16.6358H337.882C341.517 16.6396 345.003 17.974 347.573 20.3463C350.144 22.7187 351.59 25.9351 351.594 29.2901V128.874C351.59 132.229 350.144 135.446 347.573 137.818C345.003 140.19 341.517 141.525 337.882 141.529ZM53.5151 17.7361C50.1948 17.7361 47.0104 18.9534 44.6626 21.1202C42.3148 23.287 40.9958 26.2258 40.9958 29.2901V128.874C40.9958 130.392 41.3196 131.894 41.9487 133.296C42.5779 134.698 43.5001 135.971 44.6626 137.044C45.8251 138.117 47.2052 138.968 48.7242 139.549C50.2431 140.129 51.871 140.428 53.5151 140.428H337.882C339.526 140.428 341.154 140.129 342.673 139.549C344.192 138.968 345.572 138.117 346.735 137.044C347.897 135.971 348.819 134.698 349.448 133.296C350.078 131.894 350.401 130.392 350.401 128.874V91.3257C350.401 71.8085 342 53.0907 327.047 39.29C312.093 25.4893 291.811 17.7361 270.663 17.7361H53.5151Z" fill="#E6E6E6"/>
<path d="M31.0145 162.728C31.1308 161.991 30.2937 161.268 29.1447 161.113C27.9957 160.959 26.9699 161.432 26.8536 162.17C26.7373 162.907 27.5745 163.631 28.7235 163.785C29.8725 163.939 30.8982 163.466 31.0145 162.728Z" fill="white"/>
<path d="M44.6947 161.497C44.811 160.759 43.9738 160.036 42.8248 159.882C41.6758 159.727 40.6501 160.2 40.5338 160.938C40.4175 161.675 41.2547 162.399 42.4037 162.553C43.5527 162.707 44.5784 162.234 44.6947 161.497Z" fill="#3F3D56"/>
<path d="M27.2687 152.507C27.385 151.77 26.5478 151.047 25.3988 150.892C24.2498 150.738 23.2241 151.211 23.1078 151.949C22.9915 152.686 23.8287 153.409 24.9777 153.564C26.1267 153.718 27.1524 153.245 27.2687 152.507Z" fill="#FF6584"/>
<path d="M21.3242 148.321C21.3297 147.643 20.9204 147.092 20.4099 147.088C19.8995 147.084 19.4812 147.631 19.4756 148.308C19.4701 148.985 19.8794 149.537 20.3899 149.54C20.9003 149.544 21.3186 148.998 21.3242 148.321Z" fill="#E6E6E6"/>
<path d="M19.3083 140.522C19.3138 139.845 18.9045 139.293 18.3941 139.29C17.8836 139.286 17.4653 139.832 17.4598 140.51C17.4542 141.187 17.8635 141.739 18.374 141.742C18.8844 141.746 19.3028 141.2 19.3083 140.522Z" fill="#3F3D56"/>
<path d="M34.9843 154.247C34.9899 153.57 34.5806 153.018 34.0701 153.014C33.5596 153.011 33.1413 153.557 33.1358 154.234C33.1302 154.911 33.5395 155.463 34.05 155.466C34.5605 155.47 34.9788 154.924 34.9843 154.247Z" fill="#E6E6E6"/>
<path d="M28.3735 157.293C28.379 156.616 27.9697 156.064 27.4593 156.06C26.9488 156.057 26.5305 156.603 26.5249 157.28C26.5194 157.957 26.9287 158.509 27.4392 158.513C27.9496 158.516 28.3679 157.97 28.3735 157.293Z" fill="#FF6584"/>
<path d="M37.5759 162.923C37.5815 162.246 37.1721 161.694 36.6617 161.69C36.1512 161.687 35.7329 162.233 35.7273 162.91C35.7218 163.587 36.1311 164.139 36.6416 164.143C37.152 164.146 37.5704 163.6 37.5759 162.923Z" fill="#3F3D56"/>
<path d="M361.511 3.69835C361.764 2.77727 360.806 1.75859 359.371 1.42304C357.936 1.0875 356.568 1.56215 356.315 2.48323C356.062 3.40431 357.02 4.42301 358.455 4.75856C359.89 5.0941 361.258 4.61942 361.511 3.69835Z" fill="white"/>
<path d="M343.991 3.59415C344.244 2.67308 343.286 1.65437 341.851 1.31883C340.416 0.983282 339.048 1.45796 338.795 2.37904C338.542 3.30012 339.5 4.3188 340.935 4.65434C342.37 4.98989 343.738 4.51523 343.991 3.59415Z" fill="#3F3D56"/>
<path d="M364.799 17.1132C365.052 16.1922 364.094 15.1735 362.659 14.8379C361.224 14.5024 359.856 14.977 359.603 15.8981C359.35 16.8192 360.308 17.8379 361.743 18.1734C363.178 18.509 364.546 18.0343 364.799 17.1132Z" fill="#FF6584"/>
<path d="M368.883 22.1717C368.987 21.3137 368.547 20.5642 367.9 20.4975C367.253 20.4308 366.645 21.0722 366.541 21.9302C366.437 22.7881 366.877 23.5376 367.524 23.6043C368.171 23.671 368.779 23.0296 368.883 22.1717Z" fill="#E6E6E6"/>
<path d="M370.326 32.3022C370.43 31.4443 369.99 30.6948 369.343 30.6281C368.696 30.5614 368.088 31.2028 367.984 32.0607C367.88 32.9187 368.32 33.6682 368.967 33.7349C369.614 33.8016 370.222 33.1602 370.326 32.3022Z" fill="#3F3D56"/>
<path d="M352.412 12.9947C352.516 12.1368 352.076 11.3872 351.429 11.3206C350.782 11.2539 350.174 11.8953 350.07 12.7532C349.966 13.6111 350.406 14.3606 351.053 14.4273C351.699 14.494 352.308 13.8526 352.412 12.9947Z" fill="#E6E6E6"/>
<path d="M361.229 9.93777C361.333 9.07986 360.892 8.33032 360.246 8.26363C359.599 8.19695 358.991 8.83836 358.887 9.69628C358.783 10.5542 359.223 11.3037 359.87 11.3704C360.516 11.4371 361.125 10.7957 361.229 9.93777Z" fill="#FF6584"/>
<path d="M350.366 1.67889C350.47 0.820972 350.03 0.0714385 349.384 0.00475223C348.737 -0.061934 348.128 0.57948 348.025 1.43739C347.921 2.29531 348.361 3.04484 349.007 3.11153C349.654 3.17822 350.262 2.5368 350.366 1.67889Z" fill="#3F3D56"/>
<path d="M153.545 77.0556C153.56 87.0216 149.571 96.6389 142.349 104.048V104.053C141.328 105.101 140.249 106.1 139.118 107.046C137.96 108.014 136.746 108.923 135.481 109.77C134.599 110.364 133.693 110.925 132.763 111.453C131.66 112.086 130.525 112.671 129.359 113.208C128.494 113.61 127.612 113.984 126.712 114.331C121.338 116.415 115.568 117.487 109.739 117.483C106.447 117.487 103.165 117.147 99.9561 116.471C98.4719 116.16 97.0072 115.774 95.5684 115.316C95.0139 115.145 94.4595 114.958 93.9111 114.76C90.5854 113.574 87.4317 112.012 84.5216 110.111C78.3706 106.114 73.4385 100.723 70.2005 94.4563C66.9625 88.1898 65.5277 81.2593 66.0343 74.3325C66.5409 67.4057 68.9718 60.716 73.0929 54.9079C77.2139 49.0998 82.8863 44.3691 89.5634 41.1713C96.2406 37.9736 103.698 36.4168 111.216 36.6507C118.734 36.8847 126.061 38.9015 132.489 42.5071C138.918 46.1126 144.232 51.1852 147.92 57.2363C151.608 63.2874 153.545 70.113 153.545 77.0556V77.0556Z" fill="#F2F2F2"/>
<path d="M284.652 47.0034H208.94C208.308 47.0025 207.702 46.7703 207.256 46.3576C206.809 45.945 206.559 45.3857 206.559 44.8026C206.559 44.2195 206.809 43.6602 207.256 43.2476C207.702 42.835 208.308 42.6027 208.94 42.6019H284.652C285.284 42.6019 285.891 42.8337 286.338 43.2465C286.785 43.6592 287.036 44.2189 287.036 44.8026C287.036 45.3863 286.785 45.9461 286.338 46.3588C285.891 46.7715 285.284 47.0034 284.652 47.0034Z" fill="#1678F2"/>
<path d="M284.652 76.7136H208.94C208.308 76.7127 207.702 76.4805 207.256 76.0679C206.809 75.6552 206.559 75.0959 206.559 74.5128C206.559 73.9297 206.809 73.3704 207.256 72.9578C207.702 72.5452 208.308 72.3129 208.94 72.3121H284.652C285.283 72.3129 285.889 72.5452 286.336 72.9578C286.782 73.3704 287.033 73.9297 287.033 74.5128C287.033 75.0959 286.782 75.6552 286.336 76.0679C285.889 76.4805 285.283 76.7127 284.652 76.7136Z" fill="#E6E6E6"/>
<path d="M284.652 106.424H208.94C208.308 106.423 207.702 106.191 207.256 105.778C206.809 105.365 206.559 104.806 206.559 104.223C206.559 103.64 206.809 103.081 207.256 102.668C207.702 102.255 208.308 102.023 208.94 102.022H284.652C285.284 102.022 285.891 102.254 286.338 102.667C286.785 103.08 287.036 103.639 287.036 104.223C287.036 104.807 286.785 105.366 286.338 105.779C285.891 106.192 285.284 106.424 284.652 106.424Z" fill="#E6E6E6"/>
<path d="M95.3676 172.078C86.8203 161.586 81.8801 149.853 81.7182 136.477C81.4428 135.756 81.4885 134.963 81.8453 134.274C82.2021 133.584 82.8407 133.053 83.6212 132.797L112.755 123.284C113.536 123.029 114.395 123.072 115.142 123.401C115.889 123.73 116.465 124.319 116.742 125.04L130.391 160.642C130.667 161.363 130.621 162.155 130.264 162.845C129.908 163.534 129.269 164.065 128.488 164.321L99.3546 173.835C98.5735 174.089 97.7151 174.047 96.9676 173.717C96.2202 173.388 95.6448 172.799 95.3676 172.078Z" fill="#E6E6E6"/>
<path d="M93.4796 160.595C88.3389 155.799 86.1384 147.243 84.7045 137.707C84.4466 137.032 84.4894 136.29 84.8235 135.644C85.1576 134.998 85.7557 134.501 86.4867 134.261L111.525 126.085C112.256 125.847 113.06 125.887 113.76 126.195C114.46 126.503 114.999 127.055 115.259 127.73L127.405 159.411C127.663 160.086 127.62 160.828 127.286 161.474C126.952 162.12 126.354 162.617 125.623 162.857L110.112 167.922C106.854 168.982 103.272 168.806 100.154 167.433C97.0362 166.059 94.6358 163.6 93.4796 160.595Z" fill="white"/>
<path d="M115.594 144.797L96.09 151.222C95.9363 151.272 95.7733 151.295 95.6103 151.287C95.4474 151.28 95.2876 151.242 95.1401 151.178C94.9927 151.113 94.8604 151.023 94.7509 150.911C94.6414 150.799 94.5568 150.669 94.502 150.527C94.4471 150.385 94.4231 150.235 94.4312 150.085C94.4394 149.934 94.4795 149.787 94.5494 149.651C94.6193 149.515 94.7175 149.392 94.8385 149.291C94.9595 149.19 95.1008 149.112 95.2545 149.062L114.758 142.637C115.069 142.534 115.411 142.55 115.708 142.68C116.006 142.811 116.236 143.045 116.346 143.331C116.457 143.617 116.44 143.933 116.299 144.208C116.158 144.482 115.904 144.694 115.594 144.797H115.594Z" fill="#1678F2"/>
<path d="M98.09 143.885L93.7992 145.299C93.6454 145.35 93.4824 145.372 93.3193 145.365C93.1562 145.357 92.9963 145.32 92.8487 145.256C92.7011 145.191 92.5687 145.101 92.4592 144.989C92.3496 144.877 92.2649 144.747 92.21 144.605C92.1551 144.463 92.1311 144.312 92.1393 144.162C92.1474 144.011 92.1877 143.864 92.2577 143.728C92.3277 143.592 92.4261 143.469 92.5472 143.368C92.6684 143.267 92.8099 143.189 92.9637 143.139L97.2546 141.725C97.4083 141.675 97.5714 141.652 97.7345 141.66C97.8976 141.667 98.0575 141.704 98.205 141.768C98.3526 141.833 98.485 141.924 98.5946 142.035C98.7042 142.147 98.7889 142.278 98.8437 142.419C98.8986 142.561 98.9227 142.712 98.9145 142.862C98.9063 143.013 98.8661 143.16 98.7961 143.297C98.7261 143.433 98.6277 143.555 98.5066 143.656C98.3854 143.757 98.2439 143.835 98.09 143.885Z" fill="#1678F2"/>
<path d="M119.267 154.293L99.7628 160.718C99.4526 160.82 99.1111 160.804 98.8136 160.673C98.5161 160.543 98.2868 160.309 98.1761 160.023C98.0654 159.737 98.0823 159.421 98.2232 159.147C98.3641 158.872 98.6174 158.66 98.9274 158.558L118.431 152.133C118.742 152.031 119.083 152.047 119.381 152.177C119.678 152.307 119.907 152.541 120.018 152.827C120.129 153.114 120.112 153.429 119.971 153.704C119.83 153.978 119.577 154.19 119.267 154.293Z" fill="#1678F2"/>
<path d="M117.43 149.545L97.9264 155.97C97.616 156.072 97.2744 156.056 96.9766 155.926C96.6788 155.796 96.4492 155.562 96.3384 155.275C96.2276 154.989 96.2447 154.673 96.3858 154.399C96.5269 154.124 96.7806 153.912 97.091 153.81L116.595 147.385C116.749 147.334 116.912 147.311 117.075 147.319C117.238 147.326 117.398 147.363 117.545 147.428C117.693 147.492 117.825 147.583 117.935 147.694C118.045 147.806 118.129 147.937 118.184 148.079C118.239 148.221 118.263 148.371 118.255 148.522C118.247 148.672 118.206 148.82 118.136 148.956C118.066 149.092 117.968 149.214 117.847 149.315C117.726 149.416 117.584 149.494 117.43 149.545Z" fill="#1678F2"/>
<path d="M99.7197 58.7652C100.355 63.4945 103.906 67.3939 109.069 67.3939C111.549 67.3939 113.927 66.4848 115.681 64.8667C117.434 63.2485 118.419 61.0537 118.419 58.7652C118.419 53.9997 114.211 50.5771 109.069 50.1366C103.614 49.6691 98.9043 52.6934 99.7197 58.7652Z" fill="#2F2E41"/>
<path d="M117.209 116.895C111.484 117.803 105.621 117.659 99.9561 116.471C102.645 115.101 110.8 115.943 117.209 116.895Z" fill="#2F2E41"/>
<path d="M80.819 132.072L85.3101 122.056L88.8486 123.87L86.7117 134.059C86.9257 134.705 86.9403 135.393 86.754 136.045C86.5677 136.698 86.1877 137.29 85.6568 137.755C85.126 138.219 84.4653 138.538 83.749 138.675C83.0327 138.811 82.2892 138.761 81.6022 138.53C80.9151 138.298 80.3117 137.894 79.8598 137.363C79.4078 136.832 79.1253 136.196 79.0439 135.525C78.9626 134.854 79.0856 134.175 79.3992 133.565C79.7127 132.955 80.2044 132.438 80.819 132.072Z" fill="#FFB6B6"/>
<path d="M127.278 104.967V104.972C127.117 108.46 126.896 111.778 126.712 114.331C121.338 116.415 115.568 117.487 109.739 117.483C106.447 117.487 103.165 117.147 99.956 116.471C98.4718 116.16 97.0071 115.774 95.5683 115.316C95.7686 115.196 95.9851 115.102 96.2122 115.035C98.3583 114.364 96.236 113.753 96.2539 113.115C96.3195 110.782 97.017 107.982 97.9172 105.297L93.911 114.76L91.8244 119.679C91.8244 119.679 91.896 123.926 90.5725 122.628C89.2431 121.329 89.3384 125.533 89.3384 125.533C88.9253 125.804 88.5696 126.144 88.2892 126.534C88.1713 126.71 88.1268 126.919 88.164 127.123V127.128C88.2239 127.288 88.3419 127.424 88.4979 127.513C89.3981 128.075 88.1044 129.56 87.5321 130.149C87.3771 130.308 87.2758 130.402 87.2758 130.402L81.7732 130.039V129.94C81.7971 129.34 81.9461 126.182 82.7986 125.428C83.7346 124.597 83.2755 123.282 83.2755 123.282C83.2755 123.282 85.7198 121.285 84.0803 119.662C83.4246 119.008 83.7167 115.129 84.5215 110.111C86.2801 99.0411 90.495 82.4255 92.3192 82.662C92.6951 80.9767 93.5682 79.42 94.8422 78.1637C96.1161 76.9074 97.7414 76.0003 99.5387 75.5426L105.482 74.0351L106.544 70.1672H114.914L116.368 72.7091L122.467 75.251L122.544 75.284L122.735 75.361L122.807 75.5701C122.807 75.5701 122.801 75.5756 122.807 75.5756L126.199 85.4075C127.725 87.025 127.665 96.4773 127.278 104.967Z" fill="#1678F2"/>
<path d="M141.531 124.778L135.863 115.283L139.609 113.867L146.894 121.774C147.574 122.023 148.165 122.442 148.6 122.985C149.036 123.527 149.3 124.17 149.361 124.843C149.422 125.516 149.279 126.191 148.947 126.792C148.615 127.394 148.108 127.899 147.483 128.249C146.858 128.599 146.139 128.781 145.407 128.775C144.676 128.769 143.961 128.575 143.342 128.215C142.724 127.854 142.227 127.341 141.907 126.734C141.587 126.127 141.457 125.45 141.531 124.778Z" fill="#FFB6B6"/>
<path d="M122.468 75.1752C123.476 76.847 132.696 81.1466 131.098 85.4632C131.098 85.4632 139.76 110.473 140.887 110.31C142.013 110.147 143.112 112.73 143.112 112.73C143.112 112.73 142.874 114.416 143.576 113.716C144.279 113.015 144.111 114.852 144.111 114.852C144.111 114.852 143.774 116.473 144.666 116.032C145.558 115.591 144.385 118.693 144.385 118.693L139.024 121.023L138.006 119.624C138.006 119.624 135.829 119.241 136.853 118.938C137.877 118.635 135.89 117.615 135.89 117.615C135.89 117.615 133.811 116.311 134.1 114.151C134.39 111.991 128.705 107.745 128.705 107.745C124.796 100.624 122.658 93.3119 122.666 85.7697L122.468 75.1752Z" fill="#1678F2"/>
<path d="M110.103 67.9063C114.682 67.9063 118.394 64.4806 118.394 60.2548C118.394 56.0289 114.682 52.6032 110.103 52.6032C105.524 52.6032 101.812 56.0289 101.812 60.2548C101.812 64.4806 105.524 67.9063 110.103 67.9063Z" fill="#FFB6B6"/>
<path d="M101.518 61.0884C101.78 62.751 103.316 65.0708 102.956 65.0708C102.597 65.0708 100.04 58.2166 102.597 57.7696C104.451 57.4455 104.866 57.7298 106.599 57.0362L106.354 57.2486C107.501 58.0185 109.098 57.544 110.407 57.0428C111.72 56.545 113.313 56.0704 114.463 56.8371C115.186 57.3183 115.492 58.1546 115.941 58.8648C116.391 59.5783 117.221 60.252 118.077 60.033C118.411 59.9141 118.695 59.7006 118.889 59.4234C119.083 59.1461 119.176 58.8193 119.156 58.4898C119.153 57.8327 118.225 57.2076 118.538 56.618C119.463 54.8709 118.631 53.68 116.614 52.8579C115.88 52.7551 115.147 52.65 114.413 52.5426C114.797 52.0513 115.263 51.6189 115.794 51.2616C115.57 50.7313 115.182 50.2733 114.679 49.9441C114.058 49.6774 113.365 49.5851 112.687 49.6786C111.169 49.7516 109.653 49.8246 108.138 49.8976C107.01 49.879 105.89 50.0803 104.851 50.4884C103.6 51.0824 102.78 52.2406 102.183 53.4188C100.845 56.0671 101.057 58.1978 101.518 61.0884Z" fill="#2F2E41"/>
<path d="M308.914 56.0697H184.231C184.093 56.0697 183.962 56.0194 183.865 55.9298C183.767 55.8402 183.713 55.7187 183.713 55.592C183.713 55.4653 183.767 55.3437 183.865 55.2541C183.962 55.1645 184.093 55.1142 184.231 55.1142H308.914C309.052 55.1142 309.183 55.1645 309.281 55.2541C309.378 55.3437 309.432 55.4653 309.432 55.592C309.432 55.7187 309.378 55.8402 309.281 55.9298C309.183 56.0194 309.052 56.0697 308.914 56.0697Z" fill="#E6E6E6"/>
<path d="M308.914 85.6911H184.231C184.093 85.6911 183.962 85.6408 183.865 85.5512C183.767 85.4616 183.713 85.34 183.713 85.2133C183.713 85.0866 183.767 84.9651 183.865 84.8755C183.962 84.7859 184.093 84.7356 184.231 84.7356H308.914C309.052 84.7356 309.183 84.7859 309.281 84.8755C309.378 84.9651 309.432 85.0866 309.432 85.2133C309.432 85.34 309.378 85.4616 309.281 85.5512C309.183 85.6408 309.052 85.6911 308.914 85.6911Z" fill="#E6E6E6"/>
<path d="M308.914 115.312H184.231C184.093 115.312 183.962 115.262 183.865 115.172C183.767 115.083 183.713 114.961 183.713 114.834C183.713 114.708 183.767 114.586 183.865 114.497C183.962 114.407 184.093 114.357 184.231 114.357H308.914C309.052 114.357 309.183 114.407 309.281 114.497C309.378 114.586 309.432 114.708 309.432 114.834C309.432 114.961 309.378 115.083 309.281 115.172C309.183 115.262 309.052 115.312 308.914 115.312Z" fill="#E6E6E6"/>
<path d="M327.473 113.418C322.908 113.418 318.494 111.914 315.025 109.176C313.867 108.262 312.634 106.672 311.36 104.452C310.547 103.022 310.091 101.442 310.027 99.8283C309.963 98.2144 310.291 96.6077 310.989 95.1265C310.316 95.7576 309.573 96.3205 308.771 96.8055L308.365 97.0545L308.342 96.6058C308.326 96.3139 308.318 96.023 308.318 95.7412C308.318 94.0804 309.68 92.3952 309.052 90.8601C306.406 84.39 298.015 77.9601 310.176 67.9467C311.301 67.0204 309.799 65.1684 309.799 63.767C309.799 50.0323 330.832 26.2708 336.794 38.8583C344.146 54.3819 356.812 52.7215 362.423 55.9279L362.504 56.1547L362.265 56.2442C361.036 56.7206 359.743 57.0381 358.421 57.1877C359.83 57.453 361.269 57.5643 362.707 57.5191L362.93 57.5119L362.984 57.7119C363.519 59.6924 363.789 61.7259 363.789 63.767L363.788 63.9876C363.783 65.5379 364.132 67.0718 364.812 68.4892C365.493 69.9067 366.489 71.1758 367.737 72.214C369.707 73.8722 371.282 75.8911 372.361 78.1421C373.439 80.393 373.997 82.8266 374 85.2877C374 88.1995 371.856 92.0215 370.057 94.7152C369.601 95.4013 368.983 95.9833 368.248 96.4174C367.514 96.8516 366.682 97.1266 365.816 97.2218C364.996 97.3173 364.163 97.2452 363.376 97.0107C362.59 96.7761 361.869 96.3848 361.264 95.8645C362.115 97.4445 363.225 98.8943 364.554 100.163L364.799 100.396L364.494 100.56C361.566 102.136 358.236 102.966 354.846 102.965L354.648 102.965C352.162 102.941 349.696 103.375 347.394 104.242C345.093 105.109 343.002 106.391 341.244 108.013C339.454 109.715 337.314 111.07 334.949 111.998C332.584 112.926 330.042 113.409 327.473 113.418Z" fill="#E6E6E6"/>
<path d="M320.883 141.413C320.8 141.412 320.72 141.385 320.657 141.335C320.595 141.284 320.554 141.215 320.542 141.139C319.641 133.726 319.588 126.246 320.381 118.823C321.57 107.112 325.389 90.2443 336.826 76.3911C336.854 76.3579 336.888 76.33 336.927 76.309C336.966 76.2881 337.009 76.2744 337.054 76.2688C337.099 76.2632 337.145 76.2658 337.188 76.2765C337.232 76.2872 337.273 76.3057 337.309 76.331C337.345 76.3563 337.375 76.3879 337.398 76.424C337.421 76.4601 337.436 76.4999 337.442 76.5413C337.448 76.5827 337.445 76.6247 337.433 76.6651C337.422 76.7055 337.402 76.7433 337.374 76.7765C326.035 90.5101 322.248 107.254 321.067 118.882C320.278 126.256 320.33 133.686 321.224 141.05C321.231 141.095 321.227 141.141 321.213 141.185C321.199 141.228 321.175 141.269 321.143 141.303C321.111 141.337 321.071 141.365 321.026 141.384C320.981 141.403 320.932 141.413 320.883 141.413Z" fill="#3F3D56"/>
<path d="M330.217 95.9317C330.144 95.9317 330.073 95.9105 330.014 95.8711C329.955 95.8317 329.911 95.776 329.889 95.7122C329.866 95.6483 329.866 95.5795 329.889 95.5156C329.911 95.4518 329.955 95.3961 330.014 95.3566C333.273 93.3207 336.794 91.6667 340.495 90.4326C346.277 88.4788 355.071 86.7075 364.123 89.3665C364.166 89.3792 364.206 89.3995 364.241 89.4264C364.276 89.4534 364.304 89.4863 364.325 89.5234C364.346 89.5605 364.358 89.6009 364.362 89.6425C364.366 89.6841 364.361 89.726 364.347 89.7658C364.333 89.8056 364.311 89.8425 364.282 89.8744C364.253 89.9063 364.217 89.9326 364.177 89.9517C364.137 89.9709 364.093 89.9826 364.048 89.9861C364.003 89.9897 363.958 89.985 363.914 89.9723C355.047 87.368 346.413 89.1099 340.732 91.0297C337.09 92.2426 333.626 93.8689 330.419 95.8709C330.36 95.9105 330.289 95.9317 330.217 95.9317Z" fill="#3F3D56"/>
<path d="M314.451 59.6932C314.446 59.6262 314.464 59.5594 314.502 59.5023C314.54 59.4453 314.597 59.4009 314.665 59.3756C314.732 59.3503 314.806 59.3453 314.877 59.3614C314.948 59.3774 315.011 59.4137 315.058 59.4651C317.493 62.3184 319.534 65.4401 321.134 68.7583C323.662 73.9404 326.21 81.9071 323.988 90.4314C323.978 90.4721 323.959 90.5105 323.932 90.5444C323.906 90.5782 323.872 90.6069 323.833 90.6288C323.795 90.6507 323.752 90.6653 323.707 90.6719C323.662 90.6785 323.617 90.6768 323.573 90.667C323.529 90.6572 323.487 90.6395 323.45 90.6149C323.414 90.5903 323.383 90.5592 323.359 90.5235C323.335 90.4879 323.32 90.4482 323.313 90.4069C323.306 90.3656 323.308 90.3234 323.318 90.2827C325.494 81.9331 322.99 74.111 320.506 69.0193C318.933 65.7544 316.926 62.6827 314.531 59.8749C314.484 59.8237 314.456 59.7601 314.451 59.6932Z" fill="#3F3D56"/>
<path d="M32.756 107.058C30.9981 105.436 28.9072 104.154 26.6056 103.287C24.3041 102.42 21.8382 101.986 19.3525 102.009L19.154 102.01C15.7639 102.011 12.4342 101.181 9.50567 99.6053L9.20093 99.4414L9.44638 99.208C10.7752 97.9392 11.8848 96.4895 12.7362 94.9095C12.1315 95.4298 11.4102 95.8211 10.6235 96.0556C9.83681 96.2902 9.00383 96.3623 8.18358 96.2668C7.31759 96.1715 6.48622 95.8965 5.75183 95.4624C5.01744 95.0283 4.39909 94.4463 3.94317 93.7602C2.14429 91.0665 0 87.2444 0 84.3327C0.00279951 81.8716 0.561166 79.438 1.63952 77.187C2.71787 74.9361 4.29255 72.9172 6.26318 71.259C7.51075 70.2208 8.50725 68.9516 9.18769 67.5342C9.86814 66.1167 10.2172 64.5829 10.2123 63.0326L10.2113 62.8119C10.2109 60.7708 10.4812 58.7374 11.016 56.7569L11.0703 56.5569L11.2933 56.5641C12.7311 56.6092 14.1696 56.498 15.5792 56.2327C14.257 56.083 12.9636 55.7655 11.7355 55.2892L11.4956 55.1996L11.577 54.9728C17.1883 51.7664 29.8545 53.4269 37.2063 37.9033C43.1677 25.3158 64.2013 49.0772 64.2013 62.8119C64.2013 64.2134 62.6985 66.0654 63.8235 66.9917C75.9852 77.005 67.5938 83.4349 64.9481 89.905C64.3204 91.4401 65.6815 93.1253 65.6815 94.7861C65.6815 95.0679 65.6737 95.3588 65.6583 95.6507L65.6349 96.0994L65.2294 95.8504C64.4272 95.3655 63.6836 94.8026 63.0114 94.1714C63.7088 95.6526 64.0375 97.2593 63.9732 98.8733C63.909 100.487 63.4535 102.067 62.6401 103.497C61.3656 105.717 60.1326 107.307 58.9753 108.221C55.2682 111.149 50.4892 112.659 45.6156 112.443C40.742 112.227 36.1419 110.301 32.756 107.058H32.756Z" fill="#E6E6E6"/>
<path d="M53.1171 140.458C53.2 140.457 53.28 140.43 53.3426 140.38C53.4051 140.329 53.446 140.26 53.4577 140.184C54.3584 132.771 54.4123 125.291 53.6184 117.868C52.4294 106.157 48.6113 89.2893 37.1736 75.4361C37.1462 75.4029 37.112 75.375 37.0729 75.354C37.0338 75.333 36.9906 75.3193 36.9458 75.3137C36.9009 75.3082 36.8553 75.3108 36.8116 75.3214C36.7679 75.3321 36.7268 75.3506 36.6909 75.3759C36.6549 75.4012 36.6246 75.4328 36.6019 75.4689C36.5791 75.505 36.5643 75.5449 36.5583 75.5862C36.5522 75.6276 36.5551 75.6697 36.5666 75.7101C36.5782 75.7504 36.5982 75.7883 36.6257 75.8215C47.9645 89.555 51.7519 106.299 52.9324 117.927C53.7221 125.301 53.6695 132.731 52.7756 140.095C52.7687 140.14 52.7724 140.186 52.7864 140.23C52.8004 140.273 52.8243 140.314 52.8567 140.348C52.8891 140.382 52.9291 140.41 52.974 140.429C53.0189 140.448 53.0677 140.458 53.1171 140.458Z" fill="#3F3D56"/>
<path d="M43.7832 94.9766C43.856 94.9767 43.9269 94.9555 43.9858 94.916C44.0447 94.8766 44.0885 94.821 44.1111 94.7571C44.1336 94.6932 44.1336 94.6245 44.1111 94.5606C44.0887 94.4967 44.0449 94.441 43.986 94.4016C40.727 92.3657 37.2063 90.7116 33.5049 89.4775C27.7223 87.5237 18.929 85.7525 9.87645 88.4114C9.83335 88.4241 9.79337 88.4445 9.7588 88.4714C9.72423 88.4983 9.69575 88.5313 9.67497 88.5683C9.6542 88.6054 9.64153 88.6459 9.63771 88.6875C9.63388 88.7291 9.63898 88.771 9.6527 88.8107C9.66641 88.8505 9.68848 88.8874 9.71765 88.9193C9.74681 88.9512 9.78251 88.9775 9.82269 88.9967C9.86287 89.0159 9.90674 89.0275 9.95181 89.0311C9.99688 89.0346 10.0423 89.0299 10.0854 89.0173C18.9524 86.413 27.5864 88.1549 33.268 90.0747C36.9099 91.2876 40.3741 92.9138 43.581 94.9159C43.6397 94.9554 43.7106 94.9767 43.7832 94.9766Z" fill="#3F3D56"/>
<path d="M59.549 58.7382C59.5543 58.6712 59.5365 58.6044 59.4981 58.5473C59.4597 58.4903 59.4028 58.4459 59.3354 58.4206C59.268 58.3952 59.1936 58.3903 59.123 58.4063C59.0523 58.4224 58.989 58.4587 58.9421 58.5101C56.5071 61.3634 54.466 64.4851 52.8657 67.8033C50.3378 72.9854 47.7902 80.9521 50.012 89.4764C50.0224 89.5171 50.0415 89.5555 50.0681 89.5893C50.0946 89.6232 50.1282 89.6519 50.1668 89.6738C50.2054 89.6957 50.2483 89.7103 50.2931 89.7169C50.3378 89.7234 50.3835 89.7218 50.4276 89.712C50.4717 89.7022 50.5132 89.6845 50.5498 89.6599C50.5865 89.6353 50.6175 89.6042 50.6411 89.5685C50.6647 89.5328 50.6804 89.4932 50.6874 89.4519C50.6944 89.4105 50.6924 89.3684 50.6817 89.3277C48.5057 80.9781 51.0101 73.156 53.494 68.0643C55.0671 64.7994 57.0741 61.7277 59.4688 58.9199C59.5157 58.8687 59.5438 58.8051 59.549 58.7382Z" fill="#3F3D56"/>
</g>
<defs>
<clipPath id="clip0_28_2258">
<rect width="374" height="174" fill="white"/>
</clipPath>
</defs>
</svg>
