<svg width="418" height="334" viewBox="0 0 418 334" fill="none" xmlns="http://www.w3.org/2000/svg">
<path d="M60.3358 287.174V288.039C60.3369 289.472 60.8511 290.846 61.7654 291.86C62.6798 292.873 63.9196 293.443 65.2127 293.445H106.568C107.862 293.444 109.102 292.874 110.016 291.861C110.931 290.847 111.445 289.472 111.445 288.039V287.174C111.448 285.909 111.047 284.684 110.314 283.714C110.07 283.393 109.794 283.102 109.491 282.85H88.0402C87.7815 282.849 87.5335 282.735 87.3506 282.533C87.1677 282.33 87.0649 282.055 87.0648 281.768H65.2127C63.9198 281.77 62.6804 282.341 61.7662 283.354C60.852 284.367 60.3376 285.741 60.3358 287.174Z" fill="#3F3D56"/>
<path d="M83.1614 333.015H88.2333V293.23H83.1614V333.015Z" fill="#3F3D56"/>
<path d="M68.7259 332.817C68.7259 333.425 76.4116 333.052 85.8924 333.052C95.3733 333.052 103.059 333.425 103.059 332.817C103.059 332.21 95.3733 327.393 85.8924 327.393C76.4116 327.393 68.7259 332.21 68.7259 332.817Z" fill="#3F3D56"/>
<path d="M68.2948 286.262L85.6018 289.323L105.71 292.882L112.682 294.115C113.351 294.232 114.035 294.05 114.584 293.609C115.132 293.168 115.501 292.504 115.608 291.762L115.924 289.574L116.217 287.537L116.459 285.859C116.513 285.484 116.499 285.101 116.415 284.732C116.332 284.363 116.182 284.017 115.975 283.714C115.73 283.342 115.403 283.045 115.027 282.85H88.0402C87.7815 282.849 87.5335 282.735 87.3506 282.533C87.1677 282.33 87.0649 282.055 87.0648 281.768V280.917C87.0649 280.63 87.1677 280.355 87.3506 280.152C87.5335 279.949 87.7815 279.835 88.0402 279.835H98.6445L93.7559 278.971L78.7273 276.311L69.9529 274.758C69.282 274.641 68.5963 274.823 68.0463 275.264C67.4963 275.706 67.1268 276.372 67.019 277.115L66.1684 283.014C66.0646 283.757 66.2298 284.515 66.6281 285.123C67.0264 285.731 67.6255 286.141 68.2948 286.262Z" fill="#1678F2"/>
<path d="M105.71 285.44V318.397C105.711 319.148 105.981 319.867 106.46 320.398C106.939 320.929 107.588 321.228 108.265 321.229H113.661C114.339 321.228 114.988 320.929 115.467 320.398C115.946 319.867 116.216 319.148 116.217 318.397V285.44C116.218 284.815 116.03 284.207 115.682 283.714C115.425 283.336 115.084 283.038 114.691 282.85H107.232C106.841 283.039 106.501 283.337 106.245 283.714C105.898 284.207 105.71 284.815 105.71 285.44Z" fill="#1678F2"/>
<path d="M89.4486 229.659C89.476 229.952 89.5444 230.24 89.6514 230.511C89.8139 230.924 90.0643 231.287 90.3811 231.57L90.3929 231.579L105.788 245.421L106.014 245.62L109.202 248.487L110.166 249.352H126.837L125.877 248.487L112.702 236.638L103.872 228.699L97.002 222.523C96.5999 222.16 96.1069 221.943 95.5896 221.9C95.5876 221.898 95.5848 221.897 95.5818 221.896C95.4284 221.884 95.2743 221.887 95.1214 221.905C94.8924 221.93 94.6678 221.992 94.4542 222.086C94.3082 222.145 94.1693 222.223 94.0406 222.32C93.7981 222.484 93.583 222.693 93.4047 222.938L90.0572 227.509L90.0066 227.583C89.7943 227.871 89.6357 228.202 89.54 228.559C89.4442 228.915 89.4131 229.289 89.4486 229.659Z" fill="#1678F2"/>
<path d="M90.3929 231.579C90.683 232.383 91.105 233.12 91.6375 233.754L101.887 245.958C102.134 246.21 102.425 246.405 102.741 246.533C103.057 246.66 103.392 246.718 103.728 246.701C104.064 246.685 104.394 246.595 104.698 246.437C105.003 246.279 105.277 246.056 105.503 245.78L105.788 245.421L105.913 245.266L110.341 239.761L112.245 237.391C112.372 237.245 112.482 237.082 112.573 236.906C112.62 236.82 112.662 236.729 112.702 236.638C112.861 236.234 112.935 235.795 112.916 235.354C112.903 234.979 112.822 234.611 112.678 234.271C112.534 233.932 112.33 233.628 112.077 233.378L100.193 223.31C98.882 222.196 97.2311 221.69 95.5897 221.9C95.5876 221.898 95.5848 221.897 95.5818 221.896C95.2173 221.947 94.8571 222.031 94.5049 222.147C94.3489 222.195 94.1969 222.255 94.0407 222.32C93.0332 222.74 92.1398 223.44 91.4462 224.353C90.6916 225.335 90.1945 226.528 90.0088 227.802C89.8231 229.076 89.956 230.383 90.3929 231.579L90.3929 231.579Z" fill="#2F2E41"/>
<path d="M85.5262 211.85C96.3262 211.85 105.081 202.146 105.081 190.175C105.081 178.204 96.3262 168.5 85.5262 168.5C74.7263 168.5 65.9712 178.204 65.9712 190.175C65.9712 202.146 74.7263 211.85 85.5262 211.85Z" fill="#1678F2"/>
<path d="M80.3191 283.273L87.5719 284.553L87.736 284.584L98.7615 286.534L105.71 287.766L115.924 289.574L116.217 289.626L117.734 289.894L124.706 291.127C125.376 291.244 126.06 291.062 126.608 290.621C127.157 290.18 127.525 289.516 127.633 288.774L128.241 284.553L128.483 282.875C128.483 282.867 128.487 282.858 128.487 282.85H88.0402C87.7815 282.849 87.5335 282.735 87.3506 282.533C87.1677 282.33 87.0649 282.055 87.0648 281.768V280.917C87.0649 280.63 87.1677 280.355 87.3506 280.152C87.5335 279.949 87.7815 279.836 88.0402 279.835H100.821V275.109L100.041 274.97L96.1864 274.287L81.9734 271.775C81.3035 271.657 80.6187 271.838 80.0693 272.279C79.52 272.72 79.151 273.385 79.0433 274.127L78.7272 276.311L78.1927 280.03C78.088 280.772 78.253 281.531 78.6515 282.138C79.0501 282.746 79.6497 283.154 80.3191 283.273Z" fill="#1678F2"/>
<path d="M58.9116 264.125C58.9116 281.794 60.5309 292.363 85.5004 289.336C85.5355 289.332 85.5667 289.328 85.6018 289.323C90.0553 288.836 94.4599 287.902 98.7615 286.534C100.997 285.81 103.17 284.867 105.254 283.714C105.745 283.438 106.217 283.148 106.682 282.85H88.0402C87.7815 282.849 87.5335 282.735 87.3506 282.533C87.1677 282.33 87.0649 282.055 87.0648 281.768V280.917C87.0649 280.63 87.1677 280.355 87.3506 280.152C87.5335 279.949 87.7815 279.836 88.0402 279.835H100.821V252.522C100.822 251.682 101.124 250.876 101.66 250.282C102.196 249.688 102.923 249.353 103.681 249.352H114.079C113.989 249.067 113.899 248.777 113.802 248.487C112.826 245.496 111.67 242.58 110.341 239.761C108.52 235.845 106.354 232.14 103.872 228.699C102.145 226.301 100.205 224.1 98.0827 222.13C94.1694 218.549 89.909 216.335 85.5861 216.335C69.6447 216.335 58.9116 246.455 58.9116 264.125Z" fill="#2F2E41"/>
<path d="M85.1154 198.209L85.0951 197.399C86.4545 197.357 87.6531 197.262 88.5537 196.533C88.809 196.314 89.0189 196.037 89.1691 195.721C89.3192 195.404 89.4061 195.056 89.4238 194.699C89.4397 194.481 89.4099 194.261 89.3368 194.058C89.2638 193.855 89.1494 193.673 89.0026 193.527C88.4047 192.967 87.4428 193.148 86.7416 193.504L86.137 193.812L87.2965 184.42L88.0205 184.53L87.0342 192.519C87.4379 192.353 87.8727 192.301 88.2989 192.369C88.7251 192.437 89.1292 192.622 89.4743 192.908C89.7065 193.133 89.8886 193.414 90.0065 193.729C90.1245 194.045 90.175 194.386 90.1541 194.727C90.1327 195.207 90.017 195.676 89.815 196.101C89.613 196.525 89.3297 196.896 88.9848 197.187C87.8276 198.124 86.3238 198.171 85.1154 198.209Z" fill="#2F2E41"/>
<path d="M95.5367 185.218H91.601V186.028H95.5367V185.218Z" fill="#2F2E41"/>
<path d="M83.1136 185.218H79.1779V186.028H83.1136V185.218Z" fill="#2F2E41"/>
<path d="M69.9196 184.22C71.4405 181.682 74.1166 180.606 76.7554 180.345C79.7257 180.05 82.5958 180.685 85.4958 181.302C88.6874 181.981 92.0652 182.616 95.2811 181.758C96.7037 181.393 98.0331 180.675 99.169 179.658C100.305 178.641 101.218 177.351 101.838 175.886C103.016 173.028 103.27 169.807 102.557 166.766C101.717 163.537 100.011 160.666 97.665 158.536C93.0368 154.149 86.7736 152.177 80.7495 152.363C74.7482 152.535 68.9479 154.795 64.1703 158.824C59.3848 162.999 56.0173 168.848 54.6174 175.418C53.1535 181.933 53.6304 188.799 55.9767 194.989C57.295 198.379 59.2015 201.434 60.6727 204.739C62.0424 207.815 63.0973 211.392 62.245 214.823C61.8703 216.354 61.1506 217.754 60.1535 218.892C59.1565 220.029 57.9148 220.867 56.5452 221.327C55.2911 221.692 53.9641 221.595 52.7638 221.052C51.5634 220.509 50.5546 219.548 49.8891 218.315C48.5112 215.907 48.4783 212.752 50.5471 210.808C51.0687 210.309 51.6763 209.934 52.333 209.704C52.9897 209.474 53.6817 209.395 54.367 209.47C55.0522 209.546 55.7164 209.776 56.3192 210.145C56.9219 210.514 57.4506 211.015 57.8731 211.618C58.7124 212.826 59.0881 214.353 58.9187 215.866C58.8168 216.631 59.8728 216.961 59.9757 216.189C60.2226 214.589 59.9488 212.943 59.2031 211.545C58.4575 210.148 57.2884 209.089 55.9042 208.558C54.52 208.026 53.0105 208.057 51.6448 208.644C50.279 209.231 49.1457 210.337 48.4467 211.764C47.1991 214.364 47.8722 217.5 49.456 219.722C50.2731 220.906 51.3806 221.804 52.646 222.308C53.9115 222.813 55.2812 222.902 56.5914 222.566C59.4742 221.828 61.8326 219.289 62.9416 216.304C64.1763 212.982 63.6106 209.274 62.407 206.05C61.1059 202.565 59.1737 199.439 57.6458 196.081C56.2623 193.046 55.3819 189.76 55.0466 186.38C54.3754 179.592 55.7653 172.751 58.9961 166.937C62.2893 161.214 67.3157 156.979 73.1725 154.995C78.9869 152.924 85.2639 153.108 90.9714 155.517C96.5412 157.949 101.92 163.25 101.855 170.37C101.827 173.411 100.809 176.513 98.7071 178.541C96.1953 180.966 92.6981 181.173 89.5407 180.795C86.3633 180.414 83.2777 179.385 80.0865 179.123C77.3109 178.895 74.3164 179.132 71.8381 180.66C70.684 181.374 69.7014 182.384 68.9732 183.606C68.5817 184.259 69.5307 184.869 69.9196 184.22L69.9196 184.22Z" fill="#2F2E41"/>
<path d="M73.0313 237.27C73.0624 237.348 73.0975 237.425 73.1364 237.499C73.1757 237.576 73.2187 237.651 73.2652 237.724L81.8173 251.367L82.4806 252.427L89.4564 263.549L96.1865 274.287L98.9097 278.638C98.983 278.756 99.0652 278.867 99.1556 278.971C99.5767 279.462 100.143 279.769 100.751 279.835H100.821V261.279L100.041 260.034L91.2902 246.074L81.8915 231.081C81.5044 230.465 80.9124 230.043 80.2455 229.909C79.5785 229.776 78.8909 229.941 78.3333 230.368L75.4501 232.586L73.9011 233.78C73.4114 234.157 73.0563 234.713 72.8975 235.351C72.7386 235.988 72.7859 236.667 73.0313 237.27Z" fill="#1678F2"/>
<path d="M71.693 236.937L72.0791 237.797L72.0831 237.802L72.1885 238.031L78.4581 251.826C78.8115 252.467 79.3798 252.928 80.0386 253.106C80.6974 253.284 81.3931 253.166 81.9735 252.777L82.3792 252.496L82.4806 252.427L90.5646 246.805C90.8531 246.611 91.1042 246.356 91.3033 246.055C91.5024 245.753 91.6456 245.41 91.7247 245.047C91.8038 244.683 91.8171 244.306 91.7639 243.937C91.7108 243.568 91.5922 243.214 91.415 242.896L82.5353 229.55C81.6648 228.243 80.4148 227.307 78.9951 226.901C77.5755 226.494 76.073 226.642 74.7401 227.319C74.4393 227.469 74.1496 227.646 73.8739 227.847C72.5687 228.802 71.6256 230.256 71.2236 231.932C70.8216 233.608 70.9886 235.388 71.693 236.937Z" fill="#2F2E41"/>
<path d="M117.734 282.85V315.408C117.735 316.159 118.005 316.879 118.484 317.41C118.963 317.941 119.613 318.24 120.29 318.241H125.686C126.363 318.24 127.013 317.941 127.492 317.41C127.971 316.879 128.24 316.159 128.241 315.408V282.85H117.734Z" fill="#1678F2"/>
<path d="M86.2845 280.917V281.768C86.2851 282.219 86.426 282.655 86.6834 283.003C86.9407 283.351 87.2988 283.591 87.6969 283.68C87.7514 283.688 87.8061 283.701 87.8607 283.706C87.9192 283.71 87.9777 283.714 88.0402 283.714H148.186C149.151 283.714 150.077 283.289 150.761 282.533C151.444 281.776 151.828 280.75 151.83 279.68V252.522C151.828 251.452 151.444 250.426 150.761 249.669C150.077 248.913 149.151 248.488 148.186 248.487H103.681C102.716 248.489 101.791 248.914 101.108 249.67C100.426 250.427 100.042 251.452 100.041 252.522V278.971H88.0402C87.5745 278.971 87.128 279.176 86.7988 279.541C86.4695 279.905 86.2845 280.4 86.2845 280.917Z" fill="white"/>
<path d="M86.2845 280.917V281.768C86.2851 282.219 86.426 282.655 86.6834 283.003C86.9407 283.351 87.2988 283.591 87.6969 283.68C87.7514 283.688 87.8061 283.701 87.8607 283.706C87.9192 283.71 87.9777 283.714 88.0402 283.714H148.186C149.151 283.714 150.077 283.289 150.761 282.533C151.444 281.776 151.828 280.75 151.83 279.68V252.522C151.828 251.452 151.444 250.426 150.761 249.669C150.077 248.913 149.151 248.488 148.186 248.487H103.681C102.716 248.489 101.791 248.914 101.108 249.67C100.426 250.427 100.042 251.452 100.041 252.522V278.971H88.0402C87.5745 278.971 87.128 279.176 86.7988 279.541C86.4695 279.905 86.2845 280.4 86.2845 280.917ZM87.0648 281.768V280.917C87.0649 280.63 87.1677 280.355 87.3506 280.152C87.5335 279.949 87.7815 279.836 88.0402 279.835H100.821V252.522C100.822 251.682 101.124 250.876 101.66 250.282C102.196 249.688 102.923 249.353 103.681 249.352H148.186C148.944 249.353 149.672 249.686 150.209 250.281C150.746 250.875 151.048 251.681 151.049 252.522V279.68C151.048 280.521 150.746 281.327 150.209 281.921C149.672 282.515 148.944 282.849 148.186 282.85H88.0402C87.7815 282.849 87.5335 282.735 87.3506 282.533C87.1677 282.33 87.0649 282.055 87.0648 281.768Z" fill="#3F3D56"/>
<path d="M125.935 269.427C127.592 269.427 128.935 267.938 128.935 266.101C128.935 264.265 127.592 262.776 125.935 262.776C124.278 262.776 122.935 264.265 122.935 266.101C122.935 267.938 124.278 269.427 125.935 269.427Z" fill="#1678F2"/>
<path d="M100.833 279.429H100.053V283.321H100.833V279.429Z" fill="#3F3D56"/>
<path d="M417.519 17.0924H209.903C209.776 17.0924 209.654 17.0363 209.564 16.9364C209.473 16.8365 209.423 16.701 209.423 16.5597C209.423 16.4184 209.473 16.2829 209.564 16.183C209.654 16.0831 209.776 16.027 209.903 16.027H417.519C417.647 16.027 417.769 16.0831 417.859 16.183C417.949 16.2829 418 16.4184 418 16.5597C418 16.701 417.949 16.8365 417.859 16.9364C417.769 17.0363 417.647 17.0924 417.519 17.0924Z" fill="#1678F2"/>
<path d="M228.158 9.63466C230.558 9.63466 232.504 7.47787 232.504 4.81733C232.504 2.15679 230.558 0 228.158 0C225.758 0 223.812 2.15679 223.812 4.81733C223.812 7.47787 225.758 9.63466 228.158 9.63466Z" fill="#1678F2"/>
<path d="M243.172 9.63466C245.572 9.63466 247.518 7.47787 247.518 4.81733C247.518 2.15679 245.572 0 243.172 0C240.772 0 238.826 2.15679 238.826 4.81733C238.826 7.47787 240.772 9.63466 243.172 9.63466Z" fill="#1678F2"/>
<path d="M258.186 9.63466C260.586 9.63466 262.532 7.47787 262.532 4.81733C262.532 2.15679 260.586 0 258.186 0C255.786 0 253.84 2.15679 253.84 4.81733C253.84 7.47787 255.786 9.63466 258.186 9.63466Z" fill="#1678F2"/>
<path d="M249.472 99.2247C244.422 99.2247 239.485 97.5647 235.285 94.4546C231.086 91.3444 227.813 86.9239 225.88 81.7519C223.947 76.58 223.442 70.8889 224.427 65.3983C225.412 59.9078 227.844 54.8644 231.416 50.9059C234.987 46.9474 239.537 44.2517 244.49 43.1595C249.444 42.0673 254.578 42.6278 259.244 44.7701C263.911 46.9124 267.899 50.5402 270.705 55.1949C273.511 59.8495 275.008 65.3219 275.008 70.92C275.001 78.4242 272.308 85.6187 267.521 90.925C262.733 96.2313 256.243 99.2161 249.472 99.2247ZM249.472 43.681C244.612 43.681 239.861 45.2785 235.819 48.2716C231.778 51.2647 228.628 55.5188 226.768 60.4961C224.908 65.4734 224.421 70.9503 225.37 76.2342C226.318 81.5181 228.658 86.3717 232.095 90.1811C235.532 93.9906 239.911 96.5849 244.678 97.6359C249.445 98.6869 254.386 98.1475 258.877 96.0858C263.367 94.0241 267.205 90.5328 269.906 86.0533C272.606 81.5738 274.047 76.3074 274.047 70.92C274.04 63.6983 271.448 56.7747 266.841 51.6682C262.234 46.5617 255.988 43.6892 249.472 43.681Z" fill="#1678F2"/>
<path d="M248.05 241.139C254.608 241.139 259.925 235.246 259.925 227.976C259.925 220.707 254.608 214.814 248.05 214.814C241.491 214.814 236.175 220.707 236.175 227.976C236.175 235.246 241.491 241.139 248.05 241.139Z" fill="#E4E4E4"/>
<path d="M241.453 232.855L241.441 232.363C242.266 232.338 242.994 232.28 243.541 231.837C243.696 231.705 243.824 231.536 243.915 231.344C244.006 231.152 244.059 230.94 244.069 230.724C244.079 230.591 244.061 230.458 244.017 230.334C243.972 230.211 243.903 230.101 243.814 230.012C243.607 229.873 243.37 229.798 243.129 229.796C242.887 229.794 242.65 229.863 242.441 229.998L242.074 230.185L242.778 224.481L243.217 224.548L242.618 229.4C242.864 229.299 243.128 229.268 243.386 229.309C243.645 229.35 243.891 229.463 244.1 229.636C244.241 229.773 244.352 229.943 244.423 230.135C244.495 230.327 244.526 230.534 244.513 230.741C244.5 231.032 244.43 231.317 244.307 231.575C244.184 231.833 244.012 232.058 243.803 232.235C243.1 232.804 242.187 232.832 241.453 232.855Z" fill="#2F2E41"/>
<path d="M247.782 224.967H245.392V225.458H247.782V224.967Z" fill="#2F2E41"/>
<path d="M240.238 224.967H237.848V225.458H240.238V224.967Z" fill="#2F2E41"/>
<path d="M246.262 219.476C243.397 221.655 238.997 220.454 237.699 216.772C237.382 215.876 237.24 214.915 237.284 213.954C237.327 212.993 237.555 212.053 237.951 211.197C238.426 210.3 239.072 209.53 239.844 208.94C240.617 208.35 241.496 207.955 242.421 207.782C244.878 207.218 247.418 207.976 249.664 209.076C249.745 209.123 249.837 209.141 249.928 209.128C250.018 209.116 250.103 209.072 250.171 209.004C252.316 207.108 255.432 207.931 257.632 209.256C260.01 210.737 262.022 212.846 263.487 215.397C264.982 217.925 265.916 220.81 266.213 223.815C266.485 227.063 266.006 230.333 264.822 233.319C263.639 236.305 261.789 238.908 259.447 240.883C259.021 241.236 259.437 242.041 259.869 241.683C262.234 239.746 264.132 237.194 265.396 234.251C266.66 231.309 267.25 228.066 267.116 224.811C266.981 221.555 266.125 218.386 264.624 215.584C263.122 212.782 261.021 210.433 258.507 208.744C255.869 206.985 252.192 206.04 249.579 208.349L250.086 208.276C247.84 207.175 245.379 206.398 242.904 206.759C240.801 207.066 238.735 208.183 237.53 210.174C237 211.087 236.653 212.116 236.511 213.19C236.369 214.264 236.435 215.36 236.706 216.403C236.971 217.435 237.447 218.384 238.099 219.176C238.751 219.968 239.56 220.582 240.462 220.968C241.473 221.416 242.567 221.587 243.65 221.466C244.733 221.346 245.774 220.937 246.684 220.276C247.125 219.941 246.708 219.137 246.262 219.476V219.476Z" fill="#2F2E41"/>
<path d="M248.88 88.1702C255.354 88.1702 260.602 82.3531 260.602 75.1774C260.602 68.0017 255.354 62.1846 248.88 62.1846C242.406 62.1846 237.158 68.0017 237.158 75.1774C237.158 82.3531 242.406 88.1702 248.88 88.1702Z" fill="#E4E4E4"/>
<path d="M246.113 80.6316C245.354 80.6082 244.408 80.579 243.679 79.9891C243.463 79.8062 243.284 79.573 243.157 79.3058C243.03 79.0385 242.957 78.7437 242.944 78.442C242.931 78.2276 242.962 78.0127 243.037 77.8141C243.111 77.6155 243.225 77.4386 243.372 77.2973C243.589 77.1177 243.843 77.0012 244.111 76.9585C244.379 76.9157 244.652 76.948 244.906 77.0524L244.286 72.0271L244.741 71.9579L245.471 77.8658L245.091 77.6724C244.874 77.5327 244.628 77.4603 244.378 77.4628C244.127 77.4653 243.882 77.5425 243.668 77.6864C243.576 77.7785 243.504 77.893 243.458 78.0209C243.412 78.1489 243.393 78.2868 243.403 78.4241C243.414 78.6486 243.469 78.8679 243.564 79.0669C243.658 79.266 243.79 79.4402 243.951 79.5776C244.518 80.0366 245.271 80.0958 246.126 80.1223L246.113 80.6316Z" fill="#2F2E41"/>
<path d="M242.034 72.4604H239.558V72.97H242.034V72.4604Z" fill="#2F2E41"/>
<path d="M249.848 72.4604H247.373V72.97H249.848V72.4604Z" fill="#2F2E41"/>
<path d="M249.968 65.573C248.544 67.6375 246.283 69.0223 243.893 68.6944C242.784 68.5682 241.74 68.0565 240.91 67.2326C240.079 66.4087 239.505 65.3148 239.269 64.1073C239.064 62.9174 239.119 61.6901 239.431 60.5289C239.743 59.3676 240.302 58.3066 241.061 57.435C242.672 55.5573 244.977 54.5472 247.259 54.2009C249.416 53.9196 251.603 54.1464 253.676 54.8665C255.749 55.5866 257.661 56.7837 259.288 58.3796C260.929 59.9442 262.239 61.8905 263.124 64.0799C263.977 66.2531 264.384 68.6095 264.314 70.9782C264.257 73.3342 263.77 75.6529 262.882 77.7942C261.993 79.9355 260.723 81.8549 259.146 83.4363C258.75 83.8206 258.335 84.1809 257.903 84.5154C257.539 84.7985 257.194 84.1361 257.555 83.8555C259.162 82.5549 260.514 80.9082 261.533 79.014C262.551 77.1199 263.214 75.0173 263.481 72.8323C263.781 70.6428 263.647 68.4072 263.09 66.2806C262.532 64.154 261.563 62.1874 260.251 60.5172C258.927 58.843 257.314 57.4782 255.508 56.5025C253.702 55.5268 251.739 54.9598 249.733 54.8346C245.7 54.6396 240.659 56.6356 239.904 61.6124C239.566 63.843 240.318 66.1877 242.162 67.3045C243.139 67.849 244.239 68.0597 245.324 67.9101C246.408 67.7604 247.429 67.2571 248.255 66.4639C248.67 66.0872 249.045 65.6589 249.372 65.1873C249.638 64.8018 250.237 65.1821 249.968 65.573V65.573Z" fill="#2F2E41"/>
<path d="M249.472 173.89C244.422 173.89 239.485 172.23 235.285 169.12C231.086 166.01 227.813 161.589 225.88 156.417C223.947 151.245 223.442 145.554 224.427 140.064C225.412 134.573 227.844 129.53 231.416 125.571C234.987 121.613 239.537 118.917 244.49 117.825C249.444 116.733 254.578 117.293 259.244 119.435C263.911 121.578 267.899 125.206 270.705 129.86C273.511 134.515 275.008 139.987 275.008 145.585C275.001 153.09 272.308 160.284 267.521 165.59C262.733 170.897 256.243 173.881 249.472 173.89ZM249.472 118.346C244.612 118.346 239.861 119.944 235.819 122.937C231.778 125.93 228.628 130.184 226.768 135.161C224.908 140.139 224.421 145.616 225.37 150.899C226.318 156.183 228.658 161.037 232.095 164.846C235.532 168.656 239.911 171.25 244.678 172.301C249.445 173.352 254.386 172.813 258.877 170.751C263.367 168.689 267.205 165.198 269.906 160.719C272.606 156.239 274.047 150.973 274.047 145.585C274.04 138.364 271.448 131.44 266.841 126.333C262.234 121.227 255.988 118.354 249.472 118.346V118.346Z" fill="#1678F2"/>
<path d="M249.472 253.563C244.422 253.563 239.485 251.903 235.285 248.793C231.086 245.683 227.813 241.262 225.88 236.09C223.947 230.918 223.442 225.227 224.427 219.737C225.412 214.246 227.844 209.203 231.416 205.244C234.987 201.286 239.537 198.59 244.49 197.498C249.444 196.406 254.578 196.966 259.245 199.109C263.911 201.251 267.899 204.879 270.705 209.533C273.511 214.188 275.008 219.661 275.008 225.259C275.001 232.763 272.308 239.957 267.521 245.263C262.733 250.57 256.243 253.555 249.472 253.563ZM249.472 198.019C244.612 198.019 239.861 199.617 235.819 202.61C231.778 205.603 228.628 209.857 226.768 214.834C224.908 219.812 224.421 225.289 225.37 230.572C226.318 235.856 228.658 240.71 232.095 244.519C235.532 248.329 239.911 250.923 244.678 251.974C249.445 253.025 254.386 252.486 258.877 250.424C263.367 248.363 267.205 244.871 269.905 240.392C272.606 235.912 274.047 230.646 274.047 225.259C274.04 218.037 271.448 211.113 266.841 206.007C262.234 200.9 255.988 198.028 249.472 198.019Z" fill="#1678F2"/>
<path d="M247.734 161.732C254.432 161.732 259.861 155.714 259.861 148.29C259.861 140.866 254.432 134.848 247.734 134.848C241.037 134.848 235.607 140.866 235.607 148.29C235.607 155.714 241.037 161.732 247.734 161.732Z" fill="#E4E4E4"/>
<path d="M243.698 153.933C242.912 153.909 241.934 153.879 241.18 153.268C240.956 153.079 240.771 152.838 240.64 152.561C240.509 152.285 240.433 151.98 240.419 151.668C240.406 151.446 240.439 151.224 240.515 151.018C240.592 150.813 240.711 150.63 240.862 150.483C241.086 150.298 241.349 150.177 241.627 150.133C241.904 150.089 242.187 150.122 242.45 150.23L241.808 145.031L242.279 144.959L243.034 151.072L242.64 150.871C242.416 150.727 242.162 150.652 241.903 150.655C241.644 150.657 241.39 150.737 241.169 150.886C241.073 150.981 240.999 151.1 240.951 151.232C240.904 151.364 240.884 151.507 240.895 151.649C240.906 151.881 240.963 152.108 241.06 152.314C241.158 152.52 241.295 152.7 241.461 152.843C242.047 153.317 242.827 153.379 243.712 153.406L243.698 153.933Z" fill="#2F2E41"/>
<path d="M239.478 145.479H236.916V146.007H239.478V145.479Z" fill="#2F2E41"/>
<path d="M247.563 145.479H245.001V146.007H247.563V145.479Z" fill="#2F2E41"/>
<path d="M248.345 162.152L256.733 158.543C258.105 157.953 259.484 157.381 260.848 156.77C261.433 156.545 261.971 156.193 262.432 155.735C262.834 155.264 263.108 154.677 263.222 154.042C263.45 152.642 263.523 151.217 263.44 149.797C263.423 148.276 263.31 146.757 263.101 145.253C262.735 142.427 261.875 139.707 260.569 137.246C258.217 132.968 254.164 129.749 249.502 130.006C247.311 130.09 245.214 131.014 243.569 132.619C243.402 132.841 243.214 133.042 243.009 133.221C242.866 133.28 242.711 133.291 242.563 133.254C242.367 133.24 242.171 133.229 241.975 133.222C241.295 133.19 240.614 133.222 239.939 133.317C238.708 133.464 237.542 134.001 236.579 134.863C236.157 135.234 235.806 135.694 235.545 136.216C235.284 136.738 235.119 137.312 235.058 137.905C235.026 138.455 235.108 139.006 235.298 139.516C235.488 140.025 235.782 140.48 236.155 140.844C237.156 141.778 238.584 141.45 239.784 141.379L244.182 141.121L246.41 140.99C246.869 140.963 246.867 141.754 246.41 141.781L240.488 142.129C239.529 142.231 238.566 142.275 237.603 142.258C236.871 142.222 236.172 141.91 235.621 141.375C235.118 140.862 234.743 140.214 234.534 139.494C234.324 138.773 234.286 138.004 234.424 137.263C234.606 136.466 234.938 135.72 235.397 135.073C235.856 134.427 236.432 133.895 237.089 133.511C238.821 132.428 240.89 132.324 242.829 132.484L242.577 132.6C244.77 129.991 248.129 128.889 251.282 129.275C254.612 129.682 257.573 131.741 259.701 134.556C262.073 137.695 263.366 141.609 263.868 145.634C264.13 147.807 264.216 150.001 264.126 152.191C264.129 153.157 263.98 154.116 263.685 155.025C263.349 155.909 262.74 156.633 261.967 157.067C261.082 157.541 260.171 157.955 259.24 158.308L256.15 159.638L250.08 162.249L248.535 162.914C248.106 163.098 247.921 162.334 248.345 162.152V162.152Z" fill="#2F2E41"/>
<path d="M257.848 131.196C257.848 130.388 258.064 129.598 258.469 128.926C258.874 128.255 259.45 127.731 260.123 127.422C260.797 127.113 261.538 127.032 262.253 127.189C262.968 127.347 263.624 127.736 264.14 128.307C264.655 128.879 265.006 129.607 265.149 130.399C265.291 131.192 265.218 132.013 264.939 132.76C264.66 133.506 264.187 134.144 263.581 134.593C262.975 135.042 262.263 135.281 261.534 135.281C260.557 135.28 259.62 134.849 258.929 134.084C258.238 133.318 257.849 132.279 257.848 131.196ZM258.561 131.196C258.561 131.848 258.736 132.485 259.062 133.027C259.389 133.568 259.853 133.991 260.396 134.24C260.939 134.489 261.537 134.555 262.114 134.427C262.69 134.3 263.22 133.987 263.635 133.526C264.051 133.065 264.334 132.478 264.449 131.839C264.564 131.2 264.505 130.537 264.28 129.935C264.055 129.333 263.674 128.819 263.185 128.457C262.696 128.095 262.122 127.902 261.534 127.902C260.746 127.903 259.99 128.25 259.433 128.868C258.876 129.485 258.562 130.323 258.561 131.196Z" fill="#2F2E41"/>
<path d="M399.053 82.8008H315.129C314.08 82.8008 313.075 82.3392 312.333 81.5175C311.592 80.6958 311.176 79.5813 311.176 78.4193C311.176 77.2572 311.592 76.1428 312.333 75.3211C313.075 74.4994 314.08 74.0378 315.129 74.0378H399.053C399.572 74.0378 400.086 74.1511 400.566 74.3713C401.045 74.5915 401.481 74.9142 401.848 75.3211C402.215 75.7279 402.506 76.2109 402.705 76.7425C402.904 77.2741 403.006 77.8439 403.006 78.4193C403.006 78.9946 402.904 79.5644 402.705 80.096C402.506 80.6276 402.215 81.1106 401.848 81.5175C401.481 81.9243 401.045 82.2471 400.566 82.4673C400.086 82.6875 399.572 82.8008 399.053 82.8008Z" fill="#1678F2"/>
<path d="M371.99 67.8025H315.129C314.08 67.8025 313.075 67.3409 312.333 66.5192C311.592 65.6975 311.176 64.5831 311.176 63.421C311.176 62.259 311.592 61.1445 312.333 60.3228C313.075 59.5011 314.08 59.0395 315.129 59.0395H371.99C372.51 59.0395 373.024 59.1528 373.503 59.373C373.983 59.5932 374.419 59.9159 374.786 60.3228C375.153 60.7297 375.444 61.2127 375.642 61.7443C375.841 62.2759 375.943 62.8456 375.943 63.421C375.943 63.9964 375.841 64.5662 375.642 65.0978C375.444 65.6293 375.153 66.1124 374.786 66.5192C374.419 66.9261 373.983 67.2488 373.503 67.469C373.024 67.6892 372.51 67.8025 371.99 67.8025Z" fill="#1678F2"/>
<path d="M399.053 157.466H315.129C314.08 157.466 313.075 157.004 312.333 156.183C311.592 155.361 311.176 154.246 311.176 153.084C311.176 151.922 311.592 150.808 312.333 149.986C313.075 149.165 314.08 148.703 315.129 148.703H399.053C400.101 148.703 401.107 149.165 401.848 149.986C402.589 150.808 403.006 151.922 403.006 153.084C403.006 154.246 402.589 155.361 401.848 156.183C401.107 157.004 400.101 157.466 399.053 157.466Z" fill="#1678F2"/>
<path d="M371.99 142.468H315.129C314.081 142.466 313.077 142.004 312.336 141.183C311.596 140.361 311.18 139.247 311.18 138.086C311.18 136.925 311.596 135.811 312.336 134.99C313.077 134.168 314.081 133.706 315.129 133.705H371.99C373.039 133.705 374.044 134.166 374.786 134.988C375.527 135.81 375.943 136.924 375.943 138.086C375.943 139.248 375.527 140.363 374.786 141.184C374.044 142.006 373.039 142.468 371.99 142.468Z" fill="#1678F2"/>
<path d="M399.053 237.139H315.129C314.08 237.139 313.075 236.678 312.333 235.856C311.592 235.034 311.176 233.92 311.176 232.758C311.176 231.596 311.592 230.481 312.333 229.659C313.075 228.838 314.08 228.376 315.129 228.376H399.053C400.101 228.376 401.107 228.838 401.848 229.659C402.589 230.481 403.006 231.596 403.006 232.758C403.006 233.92 402.589 235.034 401.848 235.856C401.107 236.678 400.101 237.139 399.053 237.139Z" fill="#1678F2"/>
<path d="M371.99 222.141H315.129C314.08 222.141 313.075 221.679 312.333 220.858C311.592 220.036 311.176 218.921 311.176 217.759C311.176 216.597 311.592 215.483 312.333 214.661C313.075 213.84 314.08 213.378 315.129 213.378H371.99C373.039 213.378 374.044 213.84 374.786 214.661C375.527 215.483 375.943 216.597 375.943 217.759C375.943 218.921 375.527 220.036 374.786 220.858C374.044 221.679 373.039 222.141 371.99 222.141Z" fill="#1678F2"/>
<path d="M183.586 334H0.480596C0.353135 334 0.230894 333.944 0.140766 333.844C0.0506372 333.744 3.8147e-06 333.609 3.8147e-06 333.467C3.8147e-06 333.326 0.0506372 333.191 0.140766 333.091C0.230894 332.991 0.353135 332.935 0.480596 332.935H183.586C183.714 332.935 183.836 332.991 183.926 333.091C184.016 333.191 184.067 333.326 184.067 333.467C184.067 333.609 184.016 333.744 183.926 333.844C183.836 333.944 183.714 334 183.586 334Z" fill="#3F3D56"/>
</svg>
