<svg width="550" height="398" viewBox="0 0 550 398" fill="none" xmlns="http://www.w3.org/2000/svg">
<g clip-path="url(#clip0_13_1614)">
<path d="M421.093 393.499C414.051 386.298 409.774 374.921 410.896 363.846C412.018 352.771 418.965 342.589 427.977 340.237C436.988 337.885 447.261 344.396 449.998 355.051C451.504 334.508 453.24 313.105 462.263 295.611C470.434 279.771 484.585 268.437 499.922 266.409C515.259 264.382 531.406 272.04 540.971 286.692C550.536 301.344 552.878 322.644 546.179 339.466C541.244 351.857 532.152 361.08 522.626 368.582C491.844 392.622 454.925 402.398 418.661 396.111L421.093 393.499Z" fill="#1678F2"/>
<path d="M525.805 272.465C513.15 284.941 501.541 298.894 491.145 314.123C474.875 337.875 461.709 364.504 452.106 393.085C451.403 395.17 454.2 396.078 454.896 394.016C470.608 347.566 495.691 306.627 527.851 274.94C529.295 273.517 527.237 271.053 525.805 272.465Z" fill="white"/>
<path d="M177.054 391.543C186.725 381.651 192.6 366.025 191.059 350.813C189.519 335.602 179.977 321.617 167.599 318.387C155.222 315.157 141.112 324.099 137.353 338.733C135.284 310.518 132.9 281.121 120.506 257.094C109.284 235.337 89.8474 219.77 68.7824 216.985C47.7173 214.2 25.5385 224.718 12.401 244.843C-0.736555 264.967 -3.95322 294.223 5.24795 317.327C12.0261 334.348 24.5139 347.014 37.598 357.319C79.3409 390.195 131.123 403.907 180.394 395.13" fill="#1678F2"/>
<path d="M33.2318 225.301C50.6131 242.437 66.5586 261.602 80.8377 282.519C95.119 303.414 107.692 325.937 118.381 349.771C124.355 363.141 129.722 376.895 134.457 390.973C135.423 393.837 131.581 395.084 130.626 392.252C122.238 367.432 111.861 343.668 99.6434 321.299C87.4849 299.011 73.5689 278.203 58.0907 259.167C49.3363 248.406 40.0995 238.236 30.4224 228.702C28.4389 226.747 31.2647 223.363 33.2318 225.301L33.2318 225.301Z" fill="white"/>
<path d="M394.799 397.129H164.052V110.569C164.052 49.6007 205.031 0 255.402 0H303.448C353.819 0 394.799 49.6007 394.799 110.569V397.129Z" fill="#F2F2F2"/>
<path d="M346.753 397.129H164.052V110.569C164.001 87.2071 170.113 64.4361 181.497 45.5708C181.917 44.8785 182.336 44.1952 182.767 43.5193C188.274 34.7779 194.827 27.0795 202.209 20.6782C202.627 20.3109 203.045 19.95 203.47 19.5891C209.648 14.4145 216.331 10.1844 223.366 6.99498C223.784 6.80331 224.21 6.61126 224.635 6.42706C230.998 3.67859 237.594 1.7959 244.301 0.813754C244.717 0.745003 245.144 0.691204 245.571 0.637404C252.107 -0.20848 258.699 -0.20848 265.235 0.637404C265.661 0.691204 266.088 0.744996 266.508 0.81449C273.214 1.7967 279.808 3.67916 286.17 6.4271C286.595 6.6113 287.021 6.80333 287.44 6.99538C294.388 10.1445 300.992 14.3115 307.105 19.4034C307.529 19.7565 307.954 20.1174 308.373 20.4783C312.511 24.0538 316.398 28.0371 319.995 32.3876C322.879 35.8771 325.566 39.5968 328.039 43.5216C328.469 44.1952 328.888 44.8786 329.307 45.5698C340.691 64.4352 346.803 87.2067 346.753 110.569V397.129Z" fill="#6C87AE"/>
<path d="M331.897 268.961C337.483 268.961 342.011 263.48 342.011 256.718C342.011 249.957 337.483 244.475 331.897 244.475C326.31 244.475 321.782 249.957 321.782 256.718C321.782 263.48 326.31 268.961 331.897 268.961Z" fill="#1678F2"/>
<path d="M375.896 388.546H368.145L364.458 352.362L375.897 352.363L375.896 388.546Z" fill="#FFB8B8"/>
<path d="M362.609 385.865H377.556V397.256H353.198C353.198 395.76 353.441 394.279 353.914 392.897C354.387 391.515 355.08 390.259 355.954 389.202C356.828 388.144 357.866 387.305 359.008 386.732C360.149 386.16 361.373 385.865 362.609 385.865Z" fill="#2F2E41"/>
<path d="M414.459 388.546H406.709L403.021 352.362L414.46 352.363L414.459 388.546Z" fill="#FFB8B8"/>
<path d="M401.172 385.865H416.12V397.256H391.761C391.761 395.76 392.005 394.279 392.478 392.897C392.95 391.515 393.644 390.259 394.518 389.202C395.392 388.144 396.429 387.305 397.571 386.732C398.713 386.16 399.936 385.865 401.172 385.865Z" fill="#2F2E41"/>
<path d="M337.016 259.143C336.458 258.149 336.088 257.019 335.93 255.832C335.772 254.646 335.831 253.432 336.103 252.276C336.375 251.121 336.853 250.051 337.503 249.143C338.154 248.235 338.961 247.51 339.867 247.021L366.214 159.127L379.178 167.69L349.096 251.685C349.675 253.583 349.658 255.672 349.049 257.556C348.441 259.441 347.282 260.989 345.793 261.909C344.304 262.828 342.588 263.054 340.97 262.545C339.353 262.035 337.946 260.825 337.016 259.143Z" fill="#FFB8B8"/>
<path d="M410.5 275.659C409.639 275.061 408.896 274.242 408.325 273.26C407.753 272.277 407.367 271.155 407.192 269.972C407.018 268.788 407.06 267.574 407.315 266.412C407.571 265.251 408.034 264.172 408.671 263.25L400.509 170.274L415.263 171.09L418.655 262.544C419.863 263.943 420.605 265.829 420.74 267.846C420.876 269.863 420.395 271.869 419.39 273.486C418.385 275.102 416.925 276.217 415.286 276.617C413.648 277.018 411.945 276.677 410.5 275.659Z" fill="#FFB8B8"/>
<path d="M386.963 142.847C395.539 142.847 402.491 134.432 402.491 124.053C402.491 113.674 395.539 105.259 386.963 105.259C378.388 105.259 371.436 113.674 371.436 124.053C371.436 134.432 378.388 142.847 386.963 142.847Z" fill="#FFB8B8"/>
<path d="M410.401 254.513H363.59L363.646 254.073C363.73 253.413 371.989 187.931 365.898 166.508C365.286 164.403 365.34 162.099 366.049 160.038C366.757 157.978 368.07 156.308 369.735 155.349H369.735C378.441 150.387 395.153 144.276 409.259 159.106C411.335 161.324 412.955 164.096 413.993 167.203C415.031 170.31 415.458 173.667 415.239 177.008L410.401 254.513Z" fill="#1678F2"/>
<path d="M372.58 197.608L351.505 192.433L361.384 164.099C361.975 161.354 363.442 159.006 365.461 157.568C367.481 156.131 369.89 155.722 372.159 156.431C374.427 157.14 376.371 158.909 377.564 161.35C378.756 163.791 379.1 166.705 378.52 169.453L372.58 197.608Z" fill="#1678F2"/>
<path d="M399.572 207.217L398.305 172.064C397.344 165.455 400.47 159.208 405.276 158.187C410.084 157.17 414.779 161.753 415.744 168.41L420.507 201.257L399.572 207.217Z" fill="#1678F2"/>
<path d="M408.843 250.305C416.376 285.026 417.197 329.172 415.165 377.325L405.05 375.795L386.717 283.973L376.602 377.325L365.223 376.56C361.823 326.035 358.513 282.66 363.958 254.131L408.843 250.305Z" fill="#2F2E41"/>
<path d="M397.194 138.577C394.298 142.312 388.918 140.307 388.541 135.205C388.511 134.809 388.513 134.41 388.547 134.015C388.742 131.755 389.821 129.703 389.562 127.317C389.504 126.723 389.321 126.157 389.031 125.672C386.723 121.931 381.304 127.346 379.126 123.959C377.79 121.882 379.36 118.612 378.335 116.291C376.982 113.228 372.975 114.739 370.462 113.061C367.666 111.195 367.834 106.002 369.674 102.844C371.919 98.9925 375.854 96.9373 379.741 96.6411C383.627 96.3449 387.487 97.6165 391.115 99.328C395.237 101.273 399.326 103.96 401.863 108.348C404.948 113.683 405.245 120.857 403.702 127.096C402.763 130.891 399.56 135.528 397.194 138.577Z" fill="#2F2E41"/>
<path d="M531.023 397.621H64.2853C64.086 397.62 63.8951 397.524 63.7544 397.353C63.6137 397.183 63.5347 396.951 63.5347 396.71C63.5347 396.469 63.6137 396.238 63.7544 396.067C63.8951 395.896 64.086 395.8 64.2853 395.799H531.023C531.222 395.8 531.413 395.896 531.554 396.067C531.694 396.238 531.773 396.469 531.773 396.71C531.773 396.951 531.694 397.183 531.554 397.353C531.413 397.524 531.222 397.62 531.023 397.621Z" fill="#3F3D56"/>
<path d="M296.494 314.107H214.31C213.228 314.114 212.188 313.601 211.417 312.681C210.647 311.76 210.21 310.508 210.201 309.198V87.1658C210.21 85.8558 210.647 84.6032 211.417 83.683C212.188 82.7627 213.228 82.2499 214.31 82.2569H296.494C297.577 82.2499 298.617 82.7627 299.387 83.683C300.158 84.6032 300.595 85.8558 300.604 87.1658V309.198C300.595 310.508 300.158 311.76 299.387 312.681C298.617 313.601 297.577 314.114 296.494 314.107Z" fill="white"/>
<path d="M300.603 154.099H210.201V155.63H300.603V154.099Z" fill="#CCCCCC"/>
<path d="M300.92 241.415H210.517V242.945H300.92V241.415Z" fill="#CCCCCC"/>
<path d="M239.914 82.257H238.649V314.872H239.914V82.257Z" fill="#CCCCCC"/>
<path d="M271.523 82.257H270.259V314.872H271.523V82.257Z" fill="#CCCCCC"/>
</g>
<defs>
<clipPath id="clip0_13_1614">
<rect width="550" height="398" fill="white"/>
</clipPath>
</defs>
</svg>
