<svg width="425" height="394" viewBox="0 0 425 394" fill="none" xmlns="http://www.w3.org/2000/svg">
<g clip-path="url(#clip0_45_1890)">
<path d="M203.954 369.62L203.413 359.735C203.356 359.711 203.3 359.687 203.244 359.663C197.44 357.191 190.788 361.666 192.642 366.768C194.386 371.569 195.558 376.745 198.751 380.947C200.637 383.388 203.176 385.453 206.179 386.989C209.182 388.526 212.573 389.493 216.1 389.821L223.474 393.486C224.486 388.908 224.262 384.206 222.82 379.704C221.377 375.203 218.749 371.008 215.118 367.411C213.055 365.409 210.691 363.625 208.08 362.103C206.314 365.882 203.954 369.62 203.954 369.62Z" fill="#F2F2F2"/>
<path d="M137.936 269.305C123.74 257.422 103.168 250.607 81.4939 250.607L80.6579 250.609C66.3821 250.613 52.361 247.54 40.0287 241.703L38.7454 241.096L39.779 240.232C45.3746 235.533 50.047 230.163 53.6325 224.312C51.086 226.239 48.0489 227.688 44.736 228.557C41.4231 229.425 37.9154 229.692 34.4613 229.339C30.8146 228.986 27.3137 227.967 24.2211 226.36C21.1286 224.752 18.5247 222.597 16.6048 220.056C9.0297 210.08 7.62939e-06 195.925 7.62939e-06 185.141C0.0117995 176.026 2.36311 167.014 6.90408 158.677C11.445 150.341 18.076 142.864 26.3744 136.723C31.628 132.878 35.8243 128.178 38.6896 122.928C41.555 117.679 43.0251 111.998 43.0042 106.257L43 105.44C42.9986 97.8806 44.1367 90.3498 46.3889 83.015L46.6176 82.2744L47.5565 82.301C53.611 82.4682 59.6688 82.0563 65.6046 81.0738C60.0368 80.5195 54.5899 79.3436 49.4185 77.5795L48.4085 77.2479L48.7512 76.4078C72.3804 64.5331 125.718 70.6824 156.677 13.1914C181.78 -33.4261 270.354 54.5737 270.354 105.44C270.354 110.63 264.025 117.489 268.763 120.919C319.976 158.003 284.639 181.817 273.499 205.778C270.855 211.463 276.587 217.705 276.587 223.855C276.587 224.899 276.554 225.976 276.489 227.057L276.391 228.719L274.683 227.797C271.305 226.001 268.174 223.916 265.343 221.579C268.28 227.064 269.664 233.015 269.393 238.992C269.123 244.969 267.204 250.821 263.779 256.117C258.412 264.339 253.22 270.225 248.347 273.611C232.736 284.454 212.612 290.047 192.089 289.247C171.566 288.446 152.195 281.313 137.936 269.305V269.305Z" fill="#E6E6E6"/>
<path d="M223.678 392.998C224.027 392.998 224.364 392.895 224.627 392.709C224.891 392.524 225.063 392.267 225.112 391.987C225.174 391.635 231.21 356.3 225.789 309.338C220.782 265.967 204.704 203.498 156.539 152.193C156.424 152.07 156.28 151.966 156.115 151.888C155.951 151.81 155.769 151.76 155.58 151.739C155.391 151.718 155.199 151.728 155.014 151.767C154.83 151.807 154.657 151.875 154.505 151.969C154.354 152.063 154.226 152.18 154.13 152.314C154.035 152.447 153.972 152.595 153.947 152.749C153.921 152.902 153.934 153.058 153.982 153.207C154.031 153.357 154.116 153.497 154.232 153.62C201.98 204.482 217.929 266.493 222.9 309.557C228.29 356.246 222.301 391.306 222.24 391.655C222.211 391.822 222.226 391.992 222.285 392.154C222.344 392.316 222.445 392.465 222.581 392.593C222.718 392.72 222.886 392.822 223.075 392.892C223.264 392.962 223.47 392.998 223.678 392.998V392.998Z" fill="#3F3D56"/>
<path d="M184.373 224.561C184.679 224.561 184.978 224.482 185.226 224.336C185.474 224.19 185.659 223.984 185.753 223.748C185.848 223.511 185.848 223.257 185.754 223.02C185.659 222.783 185.475 222.577 185.227 222.431C185.052 222.328 167.432 212.023 141.091 204.195C116.74 196.959 79.711 190.399 41.5904 200.247C41.4086 200.293 41.24 200.369 41.0941 200.468C40.9482 200.568 40.828 200.69 40.7402 200.827C40.6525 200.965 40.599 201.115 40.5828 201.269C40.5667 201.423 40.5881 201.579 40.6459 201.726C40.7037 201.874 40.7968 202.01 40.9198 202.129C41.0428 202.247 41.1933 202.344 41.3628 202.415C41.5322 202.486 41.7172 202.529 41.9072 202.542C42.0972 202.555 42.2885 202.537 42.4701 202.49C79.8097 192.845 116.167 199.297 140.093 206.406C166.059 214.123 183.35 224.235 183.521 224.336C183.769 224.482 184.067 224.561 184.373 224.561Z" fill="#3F3D56"/>
<path d="M250.762 90.3524C250.785 90.1044 250.71 89.857 250.548 89.6457C250.386 89.4344 250.147 89.2701 249.863 89.1763C249.579 89.0825 249.266 89.0641 248.968 89.1236C248.671 89.1831 248.404 89.3176 248.207 89.5077C248.067 89.6418 234.136 103.164 222.619 123.925C211.973 143.117 201.246 172.621 210.601 204.191C210.691 204.494 210.926 204.756 211.254 204.919C211.582 205.082 211.977 205.133 212.351 205.06C212.725 204.987 213.048 204.796 213.249 204.53C213.45 204.264 213.512 203.944 213.422 203.64C204.259 172.717 214.805 143.749 225.264 124.892C236.617 104.427 250.288 91.1573 250.425 91.0256C250.622 90.8359 250.74 90.6002 250.762 90.3524V90.3524Z" fill="#3F3D56"/>
<path d="M248.799 151.061C250.023 159.075 256.865 165.683 266.815 165.683C271.593 165.683 276.175 164.143 279.554 161.4C282.933 158.658 284.831 154.939 284.831 151.061C284.831 142.985 276.722 137.185 266.815 136.438C256.303 135.646 247.228 140.771 248.799 151.061Z" fill="#2F2E41"/>
<path d="M275.159 386.558L282.02 386.557L285.283 365.079L275.158 365.079L275.159 386.558Z" fill="#FFB6B6"/>
<path d="M274.918 392.366L296.015 392.366V392.149C296.015 390.382 295.15 388.686 293.61 387.436C292.07 386.187 289.981 385.484 287.804 385.484H287.803L283.949 383.111L276.759 385.485L274.918 385.485L274.918 392.366Z" fill="#2F2E41"/>
<path d="M248.136 386.558L254.996 386.557L258.26 365.079L248.134 365.079L248.136 386.558Z" fill="#FFB6B6"/>
<path d="M247.894 392.366L268.991 392.366V392.149C268.991 390.382 268.126 388.686 266.586 387.436C265.046 386.187 262.958 385.484 260.78 385.484H260.779L256.926 383.111L249.736 385.485L247.894 385.485L247.894 392.366Z" fill="#2F2E41"/>
<path d="M298.768 252.035L303.618 265.533L297.904 322.698C297.904 322.698 300.847 326.273 298.768 326.273C296.689 326.273 294.024 327.065 295.703 329.2C297.382 331.334 291.643 338.997 291.643 338.997L283.524 379.701L273.179 379.577C273.179 379.577 267.92 377.199 270.872 374.794C273.823 372.39 275.902 372.39 273.13 370.14C270.359 367.891 270.359 368.568 270.359 366.823C270.359 365.079 267.582 343.756 274.167 335.577L272.183 302.229L267.509 334.939L257.886 378.576L247.921 378.51C247.921 378.51 243.318 374.909 243.327 372.243C243.335 369.578 246.17 369.356 244.06 367.78C241.949 366.203 241.949 341.985 248.185 328.522C248.185 328.522 251.713 321.001 248.177 318.423C244.642 315.846 248.173 312.897 248.173 312.897C248.173 312.897 253.773 311.254 248.168 306.52C242.563 301.786 248.138 268.305 248.138 268.305C248.138 268.305 242.011 254.79 248.216 249.475C254.422 244.161 298.768 252.035 298.768 252.035Z" fill="#2F2E41"/>
<path d="M212.38 275.29L221.033 258.315L227.852 261.39L223.734 278.658C224.146 279.751 224.175 280.917 223.816 282.023C223.457 283.13 222.724 284.133 221.702 284.92C220.679 285.707 219.406 286.247 218.025 286.479C216.645 286.711 215.212 286.626 213.889 286.233C212.565 285.84 211.402 285.156 210.531 284.256C209.66 283.357 209.116 282.278 208.959 281.141C208.802 280.004 209.039 278.854 209.644 277.82C210.248 276.787 211.195 275.911 212.38 275.29V275.29Z" fill="#FFB6B6"/>
<path d="M357.596 141.06L344.429 156.002L338.646 151.754L347.477 135.692C347.381 134.551 347.678 133.41 348.337 132.399C348.996 131.388 349.989 130.545 351.205 129.967C352.421 129.388 353.811 129.097 355.221 129.124C356.63 129.152 358.001 129.499 359.181 130.124C360.361 130.75 361.302 131.631 361.899 132.667C362.496 133.704 362.725 134.855 362.561 135.991C362.396 137.127 361.844 138.203 360.967 139.099C360.09 139.994 358.923 140.674 357.596 141.06V141.06Z" fill="#FFB6B6"/>
<path d="M300.075 253.419C308.615 264.171 265.685 277.816 249.212 272.338C246.327 271.379 236.405 268.211 243.187 263.818C249.969 259.425 242.401 258.807 242.222 255.948C242.103 254.036 243.926 249.842 242.024 250.022C240.121 250.202 237.894 247.558 242.038 246.42C246.182 245.283 242.082 244.245 242.118 243.165C242.515 231.38 253.655 212.634 253.655 212.634L233.581 254.284C233.581 254.284 233.729 261.49 231.169 259.288C228.609 257.086 228.796 264.213 228.796 264.213C228.796 264.213 224.989 266.369 227.178 267.569C229.367 268.769 224.821 272.458 224.821 272.458L214.215 271.843C214.215 271.843 214.381 265.448 216.192 264.034C218.003 262.62 217.114 260.395 217.114 260.395C217.114 260.395 221.829 257.007 218.668 254.256C214.602 250.719 229.424 190.969 234.54 191.56C235.263 188.704 236.945 186.065 239.401 183.936C241.856 181.807 244.989 180.27 248.453 179.496L259.909 176.936L261.943 170.385H278.073L280.883 174.69L293.146 179.181C295.456 176.536 297.182 173.748 306.64 172.845C306.64 172.845 332.128 154.023 330.883 152.553C329.639 151.084 333.59 147.643 333.59 147.643C333.59 147.643 336.964 146.746 335.06 146.268C333.156 145.789 336.755 144.683 336.755 144.683C336.755 144.683 340.088 143.972 338.516 143.036C336.944 142.1 343.762 141.485 343.762 141.485L352.608 147.344L350.821 149.804C350.821 149.804 351.911 153.155 350.488 151.932C349.065 150.709 348.797 154.259 348.797 154.259C348.797 154.259 348.071 158.146 343.762 159.317C339.453 160.488 336.186 171.615 336.186 171.615C326.025 182.339 314.033 190.704 299.822 196.211C305.361 201.371 300.075 253.419 300.075 253.419Z" fill="#1678F2"/>
<path d="M268.806 166.552C277.63 166.552 284.782 160.746 284.782 153.585C284.782 146.424 277.63 140.618 268.806 140.618C259.983 140.618 252.831 146.424 252.831 153.585C252.831 160.746 259.983 166.552 268.806 166.552Z" fill="#FFB6B6"/>
<path d="M252.264 154.998C252.77 157.815 255.728 161.747 255.035 161.747C254.343 161.747 249.416 150.131 254.343 149.374C257.916 148.824 258.715 149.306 262.055 148.131L261.583 148.491C263.794 149.795 266.87 148.991 269.393 148.142C271.922 147.298 274.991 146.494 277.209 147.793C278.601 148.609 279.19 150.026 280.057 151.23C280.923 152.439 282.523 153.58 284.172 153.209C285.496 152.911 286.258 151.708 286.251 150.594C286.244 149.481 284.458 148.421 285.059 147.422C286.842 144.461 285.239 142.443 281.352 141.05C279.939 140.876 278.525 140.698 277.112 140.516C277.852 139.683 278.75 138.95 279.772 138.345C279.341 137.446 278.594 136.67 277.624 136.112C276.495 135.567 275.095 135.606 273.786 135.662C270.862 135.786 267.94 135.91 265.02 136.033C262.858 136.123 260.62 136.23 258.687 137.034C256.276 138.041 254.696 140.004 253.546 142C250.968 146.488 251.377 150.099 252.264 154.998Z" fill="#2F2E41"/>
<path d="M185.806 393.827L342.924 394C343.143 394 343.353 393.929 343.508 393.804C343.662 393.678 343.749 393.508 343.749 393.33C343.749 393.153 343.662 392.982 343.508 392.857C343.353 392.731 343.143 392.661 342.924 392.661L185.806 392.488C185.587 392.488 185.378 392.558 185.223 392.684C185.068 392.81 184.981 392.98 184.981 393.157C184.981 393.335 185.068 393.505 185.223 393.631C185.378 393.757 185.587 393.827 185.806 393.827V393.827Z" fill="#CACACA"/>
<path d="M128.981 335.454C129.27 333.839 127.185 332.255 124.323 331.917C121.462 331.579 118.907 332.615 118.617 334.231C118.328 335.846 120.413 337.43 123.275 337.768C126.136 338.106 128.691 337.07 128.981 335.454Z" fill="#E6E6E6"/>
<path d="M163.052 332.756C163.342 331.14 161.257 329.556 158.395 329.218C155.533 328.88 152.979 329.916 152.689 331.532C152.399 333.148 154.484 334.732 157.346 335.07C160.208 335.408 162.762 334.372 163.052 332.756Z" fill="#3F3D56"/>
<path d="M119.651 313.066C119.94 311.45 117.855 309.866 114.994 309.528C112.132 309.191 109.577 310.226 109.288 311.842C108.998 313.458 111.083 315.042 113.945 315.38C116.806 315.718 119.361 314.682 119.651 313.066Z" fill="#FF6584"/>
<path d="M104.846 303.895C104.86 302.412 103.84 301.203 102.569 301.195C101.297 301.188 100.256 302.384 100.242 303.867C100.228 305.35 101.247 306.559 102.519 306.567C103.79 306.575 104.832 305.379 104.846 303.895Z" fill="#E6E6E6"/>
<path d="M99.8251 286.814C99.839 285.331 98.8195 284.122 97.5482 284.114C96.2768 284.107 95.235 285.303 95.2212 286.786C95.2073 288.269 96.2268 289.478 97.4981 289.486C98.7695 289.494 99.8113 288.298 99.8251 286.814Z" fill="#3F3D56"/>
<path d="M138.867 316.876C138.881 315.393 137.862 314.184 136.59 314.176C135.319 314.168 134.277 315.364 134.263 316.848C134.25 318.331 135.269 319.54 136.54 319.548C137.812 319.556 138.854 318.359 138.867 316.876Z" fill="#E6E6E6"/>
<path d="M122.403 323.548C122.416 322.065 121.397 320.856 120.126 320.848C118.854 320.841 117.812 322.037 117.799 323.52C117.785 325.004 118.804 326.212 120.076 326.22C121.347 326.228 122.389 325.032 122.403 323.548Z" fill="#FF6584"/>
<path d="M145.322 335.881C145.336 334.397 144.317 333.188 143.045 333.181C141.774 333.173 140.732 334.369 140.718 335.852C140.704 337.336 141.724 338.545 142.995 338.552C144.267 338.56 145.308 337.364 145.322 335.881Z" fill="#3F3D56"/>
<path d="M390.902 248.844C391.191 247.228 389.106 245.644 386.245 245.306C383.383 244.968 380.828 246.004 380.538 247.62C380.249 249.236 382.334 250.82 385.196 251.158C388.057 251.496 390.612 250.46 390.902 248.844Z" fill="#E6E6E6"/>
<path d="M424.973 246.145C425.263 244.53 423.178 242.946 420.316 242.608C417.454 242.27 414.9 243.306 414.61 244.922C414.32 246.537 416.405 248.121 419.267 248.459C422.129 248.797 424.684 247.761 424.973 246.145Z" fill="#3F3D56"/>
<path d="M381.571 226.456C381.861 224.84 379.776 223.256 376.914 222.918C374.052 222.58 371.498 223.616 371.208 225.232C370.918 226.848 373.003 228.431 375.865 228.769C378.727 229.107 381.281 228.071 381.571 226.456Z" fill="#FF6584"/>
<path d="M366.767 217.285C366.781 215.802 365.761 214.593 364.49 214.585C363.218 214.577 362.177 215.773 362.163 217.257C362.149 218.74 363.168 219.949 364.44 219.957C365.711 219.965 366.753 218.768 366.767 217.285Z" fill="#E6E6E6"/>
<path d="M361.746 200.204C361.76 198.72 360.741 197.511 359.469 197.504C358.198 197.496 357.156 198.692 357.142 200.175C357.128 201.659 358.148 202.868 359.419 202.875C360.691 202.883 361.732 201.687 361.746 200.204Z" fill="#3F3D56"/>
<path d="M400.788 230.265C400.802 228.782 399.783 227.573 398.511 227.565C397.24 227.558 396.198 228.754 396.184 230.237C396.171 231.721 397.19 232.929 398.461 232.937C399.733 232.945 400.775 231.749 400.788 230.265Z" fill="#E6E6E6"/>
<path d="M384.324 236.938C384.337 235.454 383.318 234.246 382.047 234.238C380.775 234.23 379.733 235.426 379.72 236.91C379.706 238.393 380.725 239.602 381.997 239.61C383.268 239.617 384.31 238.421 384.324 236.938Z" fill="#FF6584"/>
<path d="M407.243 249.27C407.257 247.787 406.238 246.578 404.966 246.57C403.695 246.562 402.653 247.759 402.639 249.242C402.625 250.725 403.645 251.934 404.916 251.942C406.188 251.95 407.229 250.753 407.243 249.27Z" fill="#3F3D56"/>
<path d="M264.099 88.5581C264.388 86.9424 262.303 85.3586 259.441 85.0206C256.58 84.6827 254.025 85.7185 253.735 87.3343C253.446 88.9501 255.531 90.534 258.393 90.8719C261.254 91.2099 263.809 90.1739 264.099 88.5581Z" fill="white"/>
<path d="M298.17 85.8597C298.46 84.2439 296.375 82.6601 293.513 82.3221C290.651 81.9842 288.097 83.0201 287.807 84.6359C287.517 86.2517 289.602 87.8355 292.464 88.1734C295.326 88.5114 297.881 87.4755 298.17 85.8597Z" fill="#3F3D56"/>
<path d="M254.769 66.1697C255.058 64.5539 252.973 62.9701 250.112 62.6322C247.25 62.2942 244.695 63.3301 244.406 64.9459C244.116 66.5617 246.201 68.1455 249.063 68.4835C251.924 68.8214 254.479 67.7855 254.769 66.1697Z" fill="#FF6584"/>
<path d="M239.964 56.9991C239.978 55.5158 238.958 54.3069 237.687 54.2991C236.415 54.2913 235.374 55.4875 235.36 56.9709C235.346 58.4542 236.365 59.6631 237.637 59.6709C238.908 59.6787 239.95 58.4825 239.964 56.9991Z" fill="#E6E6E6"/>
<path d="M234.943 39.9178C234.957 38.4345 233.937 37.2256 232.666 37.2178C231.395 37.21 230.353 38.4062 230.339 39.8896C230.325 41.3729 231.345 42.5818 232.616 42.5896C233.887 42.5974 234.929 41.4012 234.943 39.9178Z" fill="#3F3D56"/>
<path d="M273.985 69.9796C273.999 68.4962 272.98 67.2874 271.708 67.2796C270.437 67.2718 269.395 68.468 269.381 69.9513C269.368 71.4347 270.387 72.6435 271.658 72.6513C272.93 72.6591 273.972 71.463 273.985 69.9796Z" fill="#E6E6E6"/>
<path d="M257.521 76.652C257.534 75.1686 256.515 73.9598 255.244 73.952C253.972 73.9442 252.93 75.1403 252.917 76.6237C252.903 78.1071 253.922 79.3159 255.194 79.3237C256.465 79.3315 257.507 78.1353 257.521 76.652Z" fill="#FF6584"/>
<path d="M280.44 88.9842C280.454 87.5009 279.435 86.2921 278.163 86.2843C276.892 86.2764 275.85 87.4726 275.836 88.956C275.822 90.4393 276.842 91.6482 278.113 91.656C279.385 91.6638 280.426 90.4676 280.44 88.9842Z" fill="#3F3D56"/>
</g>
<defs>
<clipPath id="clip0_45_1890">
<rect width="425" height="394" fill="white"/>
</clipPath>
</defs>
</svg>
