<svg width="481" height="330" viewBox="0 0 481 330" fill="none" xmlns="http://www.w3.org/2000/svg">
<path d="M36.1887 329.835L35.6825 328.695C42.4698 324.224 50.9169 318.661 55.3289 309.531C59.6782 300.531 59.7758 288.309 55.5836 277.635C52.016 268.551 45.4625 260.413 36.6316 254.099C34.8898 252.854 33.0613 251.674 31.2929 250.532C27.0186 247.773 22.5988 244.92 18.9544 240.873C13.935 235.298 10.1371 225.943 12.9678 217.61C13.8987 214.951 15.4233 212.662 17.3685 211.005C19.3137 209.347 21.6015 208.387 23.9722 208.233L24.0322 209.528C21.8604 209.668 19.7644 210.547 17.9819 212.065C16.1995 213.583 14.8021 215.678 13.9483 218.114C11.3179 225.858 14.9269 234.645 19.6716 239.915C23.2164 243.852 27.5757 246.666 31.7914 249.387C33.5697 250.535 35.4088 251.722 37.1706 252.981C46.1851 259.426 52.8843 267.758 56.5438 277.076C60.8867 288.133 60.7728 300.822 56.2463 310.189C51.6839 319.63 43.0923 325.288 36.1887 329.835Z" fill="#F1F1F1"/>
<path d="M30.7182 215.066C35.8618 215.066 40.0315 212.599 40.0315 209.556C40.0315 206.514 35.8618 204.047 30.7182 204.047C25.5745 204.047 21.4048 206.514 21.4048 209.556C21.4048 212.599 25.5745 215.066 30.7182 215.066Z" fill="#F1F1F1"/>
<path d="M38.1689 251.362C43.3125 251.362 47.4822 248.895 47.4822 245.853C47.4822 242.81 43.3125 240.343 38.1689 240.343C33.0252 240.343 28.8555 242.81 28.8555 245.853C28.8555 248.895 33.0252 251.362 38.1689 251.362Z" fill="#F1F1F1"/>
<path d="M21.1387 257.195C26.2823 257.195 30.452 254.728 30.452 251.686C30.452 248.643 26.2823 246.177 21.1387 246.177C15.995 246.177 11.8253 248.643 11.8253 251.686C11.8253 254.728 15.995 257.195 21.1387 257.195Z" fill="#F1F1F1"/>
<path d="M47.7483 287.658C52.892 287.658 57.0617 285.191 57.0617 282.149C57.0617 279.106 52.892 276.639 47.7483 276.639C42.6047 276.639 38.435 279.106 38.435 282.149C38.435 285.191 42.6047 287.658 47.7483 287.658Z" fill="#F1F1F1"/>
<path d="M66.3751 287.658C71.5187 287.658 75.6885 285.191 75.6885 282.149C75.6885 279.106 71.5187 276.639 66.3751 276.639C61.2315 276.639 57.0617 279.106 57.0617 282.149C57.0617 285.191 61.2315 287.658 66.3751 287.658Z" fill="#F1F1F1"/>
<path d="M481 10.0005H181.484V183.092H481V10.0005Z" fill="#E6E6E6"/>
<path d="M472.436 24.8434H190.049V169.259H472.436V24.8434Z" fill="white"/>
<path d="M480.872 0H181.356V15.4967H480.872V0Z" fill="#1678F2"/>
<path d="M190.812 10.0402C192.114 10.0402 193.17 8.7542 193.17 7.1679C193.17 5.5816 192.114 4.29565 190.812 4.29565C189.509 4.29565 188.453 5.5816 188.453 7.1679C188.453 8.7542 189.509 10.0402 190.812 10.0402Z" fill="white"/>
<path d="M199.764 10.0402C201.066 10.0402 202.122 8.7542 202.122 7.1679C202.122 5.5816 201.066 4.29565 199.764 4.29565C198.461 4.29565 197.405 5.5816 197.405 7.1679C197.405 8.7542 198.461 10.0402 199.764 10.0402Z" fill="white"/>
<path d="M208.716 10.0402C210.018 10.0402 211.074 8.7542 211.074 7.1679C211.074 5.5816 210.018 4.29565 208.716 4.29565C207.413 4.29565 206.357 5.5816 206.357 7.1679C206.357 8.7542 207.413 10.0402 208.716 10.0402Z" fill="white"/>
<path d="M316.353 59.116C316.05 59.116 315.759 59.2626 315.545 59.5235C315.331 59.7845 315.21 60.1384 315.21 60.5075C315.21 60.8765 315.331 61.2304 315.545 61.4914C315.759 61.7523 316.05 61.8989 316.353 61.8989H379.047C379.35 61.8989 379.641 61.7523 379.855 61.4914C380.07 61.2304 380.19 60.8765 380.19 60.5075C380.19 60.1384 380.07 59.7845 379.855 59.5235C379.641 59.2626 379.35 59.116 379.047 59.116H316.353Z" fill="#E6E6E6"/>
<path d="M316.353 67.4657C316.05 67.4665 315.76 67.6134 315.547 67.8743C315.333 68.1352 315.213 68.4887 315.213 68.8572C315.213 69.2257 315.333 69.5792 315.547 69.8401C315.76 70.1009 316.05 70.2479 316.353 70.2487H348.36C348.662 70.2479 348.952 70.1009 349.166 69.8401C349.38 69.5792 349.5 69.2257 349.5 68.8572C349.5 68.4887 349.38 68.1352 349.166 67.8743C348.952 67.6134 348.662 67.4665 348.36 67.4657H316.353Z" fill="#E6E6E6"/>
<path d="M314.775 107.88C314.472 107.88 314.182 108.026 313.967 108.287C313.753 108.548 313.633 108.902 313.633 109.271C313.633 109.64 313.753 109.994 313.967 110.255C314.182 110.516 314.472 110.663 314.775 110.663H432.328C432.631 110.663 432.921 110.516 433.136 110.255C433.35 109.994 433.47 109.64 433.47 109.271C433.47 108.902 433.35 108.548 433.136 108.287C432.921 108.026 432.631 107.88 432.328 107.88H314.775Z" fill="#E6E6E6"/>
<path d="M314.775 116.229C314.473 116.23 314.183 116.377 313.969 116.638C313.755 116.899 313.635 117.252 313.635 117.621C313.635 117.989 313.755 118.343 313.969 118.604C314.183 118.865 314.473 119.012 314.775 119.012H401.64C401.943 119.012 402.233 118.865 402.446 118.604C402.66 118.343 402.78 117.989 402.78 117.621C402.78 117.252 402.66 116.899 402.446 116.638C402.233 116.377 401.943 116.23 401.64 116.229H314.775Z" fill="#E6E6E6"/>
<path d="M314.775 124.39C314.473 124.391 314.183 124.538 313.969 124.799C313.755 125.06 313.635 125.413 313.635 125.782C313.635 126.15 313.755 126.504 313.969 126.765C314.183 127.025 314.473 127.172 314.775 127.173H432.328C432.63 127.172 432.92 127.025 433.134 126.765C433.348 126.504 433.468 126.15 433.468 125.782C433.468 125.413 433.348 125.06 433.134 124.799C432.92 124.538 432.63 124.391 432.328 124.39H314.775Z" fill="#E6E6E6"/>
<path d="M314.775 132.74C314.473 132.741 314.183 132.888 313.969 133.149C313.755 133.409 313.635 133.763 313.635 134.131C313.635 134.5 313.755 134.853 313.969 135.114C314.183 135.375 314.473 135.522 314.775 135.523H401.64C401.943 135.522 402.233 135.375 402.446 135.114C402.66 134.853 402.78 134.5 402.78 134.131C402.78 133.763 402.66 133.409 402.446 133.149C402.233 132.888 401.943 132.741 401.64 132.74H314.775Z" fill="#E6E6E6"/>
<path d="M253.318 113.527C258.813 113.527 263.267 108.102 263.267 101.41C263.267 94.7185 258.813 89.2937 253.318 89.2937C247.823 89.2937 243.369 94.7185 243.369 101.41C243.369 108.102 247.823 113.527 253.318 113.527Z" fill="#A0616A"/>
<path d="M250.168 91.717C250.168 91.717 254.81 93.2316 257.215 93.8374C259.619 94.4433 259.37 92.7267 259.37 92.7267C259.37 92.7267 262.521 93.2316 262.355 92.8277C262.189 92.4238 263.682 90.3034 261.941 87.8801C260.199 85.4567 260.697 83.6393 260.697 83.6393H259.205L258.79 82.9325H256.469C256.469 82.9325 253.902 80.1915 249.342 80.9993C244.782 81.8071 239.39 83.9422 238.892 87.2742C238.825 87.7262 238.736 88.2283 238.633 88.7587C237.386 95.1698 240.035 101.168 242.783 106.844C243.458 108.238 246.725 111.28 246.641 109.193C246.558 107.106 243.701 102.42 245.691 102.117C247.68 101.814 251.08 95.6549 250.168 91.717Z" fill="#2F2E41"/>
<path d="M247.674 140.581C245.754 140.394 243.849 140.013 241.98 139.442L242.085 137.026L242.956 117.813L242.964 117.666H260.489L263.24 135.356L263.611 137.742C262.885 138.086 262.151 138.41 261.401 138.695C261.393 138.695 261.393 138.705 261.385 138.705C260.344 139.098 259.288 139.442 258.223 139.727C256.807 140.099 255.375 140.367 253.933 140.532C252.818 140.667 251.698 140.732 250.578 140.728C249.61 140.729 248.634 140.679 247.674 140.581Z" fill="#1678F2"/>
<path d="M236.407 137.163C235.681 136.78 234.98 136.367 234.286 135.935L233.988 135.749C233.786 135.621 233.576 135.483 233.375 135.346C233.1 135.159 232.834 134.973 232.576 134.786C232.326 134.609 232.068 134.423 231.818 134.236C231.802 134.226 231.794 134.216 231.778 134.216C230.907 133.539 230.052 132.841 229.229 132.085C229.092 131.957 228.955 131.83 228.818 131.702L228.673 128.873L228.882 128.716L242.956 117.813L243.149 117.666L243.166 117.656L245.15 117.666V126.663C246.271 128.637 247.029 132.772 247.497 138.185C247.561 138.961 247.618 139.756 247.674 140.581C245.754 140.394 243.849 140.013 241.98 139.442C241.779 139.393 241.585 139.334 241.383 139.265C240.208 138.89 239.05 138.438 237.915 137.91C237.568 137.752 237.23 137.585 236.891 137.418L236.859 137.399C236.713 137.32 236.552 137.242 236.407 137.163Z" fill="#2F2E41"/>
<path d="M233.375 135.346C233.1 135.159 232.834 134.973 232.576 134.786C232.326 134.609 232.068 134.423 231.818 134.236C231.802 134.226 231.794 134.216 231.778 134.216C230.907 133.539 230.052 132.841 229.229 132.085C229.092 131.957 228.955 131.83 228.818 131.702C228.754 131.633 228.689 131.574 228.616 131.505C228.1 131.024 227.6 130.523 227.116 129.993C227.092 129.973 227.076 129.944 227.052 129.924C227.54 129.466 228.088 129.111 228.673 128.873L229.245 129.079L233.326 130.572L233.35 132.586L233.375 135.346Z" fill="#2F2E41"/>
<path d="M267.74 135.375C267.498 135.532 267.256 135.69 267.014 135.837C266.958 135.876 266.91 135.906 266.861 135.935C266.538 136.132 266.224 136.328 265.901 136.515C265.893 136.525 265.877 136.525 265.877 136.534C265.861 136.544 265.837 136.554 265.821 136.564C265.095 136.986 264.361 137.379 263.611 137.743C262.885 138.086 262.151 138.41 261.401 138.695C261.393 138.695 261.393 138.705 261.385 138.705C260.344 139.098 259.288 139.442 258.223 139.727C258.211 138.92 258.298 138.115 258.481 137.34L258.489 137.202L259.183 123.53L258.255 117.666L260.917 117.184L275.555 126.781C275.555 126.781 273.942 128.745 267.321 132.93C266.735 133.3 267.595 134.531 267.74 135.375Z" fill="#2F2E41"/>
<path d="M253.755 138.175C252.707 138.293 251.642 138.352 250.578 138.352C249.545 138.352 248.521 138.302 247.497 138.184C247.561 138.96 247.618 139.756 247.674 140.581C248.634 140.679 249.61 140.728 250.578 140.728C251.698 140.732 252.818 140.667 253.933 140.532C255.375 140.367 256.807 140.099 258.223 139.727C258.211 138.92 258.298 138.115 258.481 137.34L258.489 137.202C256.932 137.664 255.35 137.989 253.755 138.175ZM284.233 83.052C282.529 77.0898 279.777 71.6521 276.17 67.1181C272.563 62.584 268.187 59.0628 263.348 56.7999C258.508 54.537 253.322 53.587 248.15 54.016C242.978 54.445 237.946 56.2428 233.403 59.2839C228.86 62.3251 224.917 66.5364 221.848 71.6243C218.779 76.7121 216.658 82.554 215.634 88.7426C214.609 94.9312 214.705 101.318 215.915 107.456C217.125 113.595 219.42 119.338 222.64 124.286C222.963 124.777 223.293 125.268 223.632 125.74C223.664 125.779 223.681 125.808 223.705 125.838C224.537 127.007 225.423 128.119 226.358 129.168C226.584 129.423 226.818 129.678 227.052 129.924C227.076 129.944 227.092 129.973 227.116 129.993C227.6 130.523 228.1 131.024 228.616 131.505C228.689 131.574 228.754 131.633 228.818 131.702C228.955 131.829 229.092 131.957 229.229 132.085C230.052 132.841 230.907 133.539 231.778 134.216C231.794 134.216 231.802 134.226 231.818 134.236C232.068 134.423 232.326 134.609 232.576 134.786C232.834 134.973 233.101 135.159 233.375 135.346C233.576 135.483 233.786 135.621 233.988 135.749L234.286 135.935C234.98 136.367 235.681 136.78 236.407 137.163C236.552 137.242 236.713 137.32 236.859 137.399L236.891 137.418C237.23 137.585 237.568 137.752 237.915 137.909C239.05 138.438 240.208 138.89 241.383 139.265C241.585 139.334 241.779 139.393 241.98 139.442C243.849 140.013 245.754 140.394 247.674 140.581C248.634 140.679 249.61 140.728 250.578 140.728C251.698 140.732 252.818 140.667 253.933 140.532C255.375 140.367 256.807 140.099 258.223 139.727C259.288 139.442 260.344 139.098 261.385 138.705C261.393 138.705 261.393 138.695 261.401 138.695C262.151 138.41 262.885 138.086 263.611 137.742C264.361 137.379 265.095 136.986 265.821 136.564C265.837 136.554 265.861 136.544 265.877 136.534C265.877 136.525 265.893 136.525 265.901 136.515C266.224 136.328 266.538 136.132 266.861 135.935C266.91 135.906 266.958 135.876 267.014 135.837C267.256 135.69 267.498 135.532 267.74 135.375C267.756 135.365 267.764 135.356 267.78 135.346C268.417 134.914 269.047 134.462 269.668 133.981C269.837 133.853 270.006 133.725 270.176 133.578C270.426 133.391 270.668 133.185 270.901 132.979C271.216 132.713 271.53 132.438 271.837 132.154C271.939 132.074 272.036 131.985 272.127 131.888C272.878 131.201 273.603 130.474 274.297 129.708C279.557 124 283.308 116.521 285.077 108.216C286.845 99.9109 286.552 91.1537 284.233 83.0521L284.233 83.052ZM273.692 127.174C272.819 128.174 271.904 129.118 270.95 130.003C270.74 130.199 270.522 130.395 270.305 130.572C270.095 130.769 269.886 130.955 269.668 131.132C269.482 131.289 269.297 131.446 269.103 131.594C269.087 131.613 269.063 131.623 269.047 131.643C268.909 131.761 268.764 131.869 268.627 131.977C268.2 132.301 267.756 132.625 267.321 132.93C267.216 132.998 267.119 133.077 267.014 133.146C266.958 133.185 266.901 133.224 266.837 133.263C266.595 133.431 266.353 133.578 266.111 133.735C266.079 133.764 266.038 133.774 266.006 133.804C265.994 133.806 265.983 133.813 265.974 133.823C265.805 133.931 265.635 134.03 265.466 134.128C265.321 134.216 265.184 134.305 265.038 134.383C264.449 134.727 263.845 135.051 263.24 135.356C262.603 135.67 261.957 135.955 261.304 136.22C261.143 136.289 260.973 136.367 260.804 136.426C260.038 136.721 259.272 136.986 258.489 137.202C256.932 137.664 255.35 137.989 253.755 138.175C252.707 138.292 251.642 138.351 250.578 138.351C249.545 138.351 248.521 138.302 247.497 138.184C245.67 137.981 243.859 137.593 242.085 137.025C242.02 137.006 241.948 136.986 241.883 136.966C240.428 136.504 239.002 135.913 237.617 135.199C237.544 135.159 237.464 135.13 237.399 135.09C237.318 135.051 237.246 135.022 237.181 134.982C237.101 134.943 237.028 134.904 236.956 134.864C236.351 134.54 235.762 134.187 235.173 133.823L234.899 133.647C234.375 133.313 233.858 132.969 233.35 132.586C233.173 132.468 232.988 132.33 232.81 132.193C232.609 132.046 232.407 131.888 232.213 131.731C232.165 131.692 232.117 131.653 232.068 131.613C231.617 131.24 231.157 130.867 230.721 130.464C230.415 130.189 230.117 129.924 229.818 129.639C229.624 129.462 229.431 129.276 229.245 129.079C229.125 128.971 229.004 128.843 228.882 128.716C228.721 128.549 228.56 128.382 228.399 128.205C228.149 127.959 227.915 127.684 227.689 127.429C226.781 126.41 225.922 125.328 225.116 124.188C224.842 123.814 224.584 123.441 224.334 123.048C224.276 122.971 224.222 122.889 224.172 122.803C220.112 116.56 217.631 109.014 217.033 101.083C216.434 93.1532 217.744 85.1822 220.802 78.1429C223.859 71.1035 228.533 65.3002 234.253 61.4409C239.973 57.5816 246.492 55.8331 253.013 56.4088C259.535 56.9844 265.779 59.8594 270.982 64.6828C276.185 69.5063 280.123 76.0697 282.315 83.5725C284.508 91.0752 284.86 99.1929 283.329 106.935C281.797 114.677 278.449 121.71 273.692 127.174L273.692 127.174Z" fill="#3F3D56"/>
<path d="M86.9795 321.932L93.5042 321.932L96.608 291.282L86.9785 291.283L86.9795 321.932Z" fill="#A0616A"/>
<path d="M85.3154 319.338L98.1647 319.337H98.1652C100.337 319.337 102.42 320.388 103.955 322.258C105.491 324.129 106.354 326.665 106.354 329.31V329.634L85.3158 329.635L85.3154 319.338Z" fill="#2F2E41"/>
<path d="M111.46 321.932L117.985 321.932L121.089 291.282L111.459 291.283L111.46 321.932Z" fill="#A0616A"/>
<path d="M109.796 319.338L122.646 319.337H122.646C124.818 319.337 126.9 320.388 128.436 322.258C129.972 324.129 130.835 326.665 130.835 329.31V329.634L109.797 329.635L109.796 319.338Z" fill="#2F2E41"/>
<path d="M67.1823 200.821C67.7162 200.125 68.1184 199.294 68.3603 198.388C68.6023 197.482 68.6781 196.522 68.5826 195.577C68.487 194.631 68.2223 193.722 67.8072 192.915C67.3921 192.107 66.8367 191.42 66.18 190.902L70.7133 168.408L61.404 172.448L58.5263 193.189C57.885 194.591 57.688 196.23 57.9727 197.796C58.2573 199.362 59.0039 200.747 60.0709 201.688C61.1378 202.628 62.4511 203.06 63.7617 202.9C65.0724 202.74 66.2895 202.001 67.1823 200.821Z" fill="#9E616A"/>
<path d="M136.442 198.877C135.908 198.18 135.506 197.35 135.264 196.444C135.022 195.538 134.947 194.578 135.042 193.632C135.138 192.687 135.402 191.778 135.817 190.97C136.233 190.163 136.788 189.476 137.445 188.958L132.911 166.464L142.221 170.504L145.098 191.245C145.74 192.646 145.937 194.285 145.652 195.852C145.367 197.418 144.621 198.803 143.554 199.743C142.487 200.684 141.174 201.115 139.863 200.956C138.552 200.796 137.335 200.056 136.442 198.877Z" fill="#9E616A"/>
<path d="M75.7668 185.054L84.8103 314.077L98.0428 312.608L103.339 212.89L108.053 252.374L108.997 315.092L120.971 314.12L127.62 246.648L125.989 181.304L80.5309 175.698L75.7668 185.054Z" fill="#2F2E41"/>
<path d="M100.644 67.6458C108.223 67.6458 114.367 60.1632 114.367 50.9329C114.367 41.7026 108.223 34.22 100.644 34.22C93.0652 34.22 86.9212 41.7026 86.9212 50.9329C86.9212 60.1632 93.0652 67.6458 100.644 67.6458Z" fill="#A0616A"/>
<path d="M96.2986 37.5625C96.2986 37.5625 102.703 39.6516 106.019 40.4873C109.335 41.3229 108.992 38.9552 108.992 38.9552C108.992 38.9552 113.338 39.6516 113.109 39.0945C112.881 38.5374 114.939 35.6127 112.537 32.2701C110.136 28.9275 110.822 26.4206 110.822 26.4206H108.764L108.192 25.4456H104.99C104.99 25.4456 101.45 21.665 95.1599 22.7792C88.8702 23.8933 81.4319 26.8384 80.7458 31.4344C80.6527 32.0578 80.5302 32.7504 80.3879 33.4819C78.668 42.325 82.3224 50.599 86.1126 58.4271C87.0441 60.351 91.5498 64.5461 91.4345 61.6679C91.3193 58.7896 87.3786 52.3256 90.1232 51.9077C92.8678 51.4899 97.5565 42.9942 96.2986 37.5625Z" fill="#2F2E41"/>
<path d="M86.3641 73.3547H110.532L127.62 183.264C127.62 183.264 112.722 184.815 104.207 188.704C95.6921 192.593 81.5366 179.821 81.5366 179.821L86.3641 73.3547Z" fill="#1678F2"/>
<path d="M89.3812 85.7666V73.3548L86.6448 73.3345L66.652 88.8154L70.9902 173.633C70.9902 173.633 76.1248 201.93 83.9127 201.637C91.7007 201.343 97.7057 100.467 89.3812 85.7666Z" fill="#2F2E41"/>
<path d="M73.0739 91.1585L66.652 88.8154C66.652 88.8154 61.8978 90.5103 61.8978 96.3436C61.8978 102.177 57.8016 185.054 57.8016 185.054L70.8142 186.455L73.6061 144.306L73.0739 91.1585Z" fill="#2F2E41"/>
<path d="M108.731 81.4362L107.451 73.3547L111.126 72.6863L124.431 79.1677C124.431 79.1677 136.405 185.788 131.083 189.028C125.761 192.269 122.168 189.758 122.168 189.758C122.168 189.758 104.663 111.121 107.761 100.492L108.731 81.4362Z" fill="#2F2E41"/>
<path d="M115.117 80.7882L117.388 79.5845C117.388 79.5845 124.053 75.5623 127.834 83.6845C131.615 91.8066 144.92 182.547 144.92 182.547L133.973 185.054L125.788 152.398L115.117 80.7882Z" fill="#2F2E41"/>
<path d="M203.298 330H0.532195C0.391049 330 0.255683 329.932 0.155877 329.81C0.0560717 329.689 1.90735e-06 329.524 1.90735e-06 329.352C1.90735e-06 329.18 0.0560717 329.015 0.155877 328.894C0.255683 328.772 0.391049 328.704 0.532195 328.704H203.298C203.439 328.704 203.574 328.772 203.674 328.894C203.774 329.015 203.83 329.18 203.83 329.352C203.83 329.524 203.774 329.689 203.674 329.81C203.574 329.932 203.439 330 203.298 330Z" fill="#CACACA"/>
</svg>
